<?xml version="1.0" encoding="UTF-8"?>
<svg version="1.1" xmlns="http://www.w3.org/2000/svg" width="1024" height="1024">
<path d="M0 0 C1.07512344 0.00149551 1.07512344 0.00149551 2.17196655 0.00302124 C3.25131973 0.00342911 3.25131973 0.00342911 4.35247803 0.00384521 C77.59193061 0.13088941 149.05485619 25.86099021 203.25790405 75.92489624 C205.3097539 77.80198285 207.3910761 79.62426761 209.4961853 81.44052124 C213.88962752 85.27632637 218.051154 89.31502115 222.17196655 93.44052124 C222.91696411 94.18632446 223.66196167 94.93212769 224.42953491 95.70053101 C229.93439613 101.26673777 234.94747301 106.99210486 239.73446655 113.19052124 C240.36997437 113.95880249 241.00548218 114.72708374 241.6602478 115.51864624 C266.39346872 145.45625232 284.39856747 182.22505219 293.2124939 219.98739624 C293.71685694 222.11619515 294.26190058 224.23058455 294.8164978 226.34677124 C311.45469085 292.02425315 296.58958618 362.71085352 266.69320679 422.04940796 C265.59824109 424.10375363 265.59824109 424.10375363 265.73446655 426.19052124 C265.07446655 426.19052124 264.41446655 426.19052124 263.73446655 426.19052124 C263.48438843 426.87630249 263.2343103 427.56208374 262.97665405 428.26864624 C261.53284395 431.66477818 259.75989122 434.78681189 257.85946655 437.94052124 C257.47089478 438.58593872 257.082323 439.2313562 256.68197632 439.89633179 C249.54985692 451.55350406 241.50961193 462.71696063 232.73446655 473.19052124 C232.31310425 473.69535034 231.89174194 474.20017944 231.45761108 474.7203064 C228.24326657 478.56679392 224.99658 482.38451713 221.73446655 486.19052124 C221.00872437 487.04259155 220.28298218 487.89466187 219.5352478 488.77255249 C215.85657006 493.01495688 212.04386024 496.79962105 207.75790405 500.42489624 C204.23754568 503.49671474 201.00176183 506.8541986 197.73446655 510.19052124 C197.07446655 510.85052124 196.41446655 511.51052124 195.73446655 512.19052124 C201.94016729 511.01973049 208.05911675 509.63680427 214.17977905 508.08407593 C251.22170244 498.76438485 288.62363423 496.4175348 326.60946655 499.56552124 C327.37546173 499.62855438 328.14145691 499.69158752 328.93066406 499.75653076 C354.64003316 501.91513749 354.64003316 501.91513749 359.48446655 505.44052124 C361.73446655 508.19052124 361.73446655 508.19052124 362.35946655 511.25302124 C361.59516416 514.84524247 360.68599033 516.03670659 357.73446655 518.19052124 C353.69185072 519.38365438 350.53336671 519.02108501 346.42196655 518.25302124 C345.35333374 518.0583728 344.28470093 517.86372437 343.1836853 517.66317749 C342.37544312 517.50720093 341.56720093 517.35122437 340.73446655 517.19052124 C340.73446655 517.85052124 340.73446655 518.51052124 340.73446655 519.19052124 C339.74446655 518.86052124 338.75446655 518.53052124 337.73446655 518.19052124 C337.73446655 517.86052124 337.73446655 517.53052124 337.73446655 517.19052124 C286.00644518 510.52220309 235.0882657 516.34053891 185.73446655 533.12802124 C184.64083801 533.4984404 184.64083801 533.4984404 183.52511597 533.87634277 C175.58816423 536.58091928 167.7780151 539.48799158 160.08602905 542.83114624 C159.44399536 543.10953842 158.80196167 543.3879306 158.14047241 543.67475891 C153.94897628 545.5379561 150.04652595 547.66563675 146.10946655 550.00302124 C84.48692929 586.01037762 7.06506467 592.92773498 -61.26553345 575.19052124 C-87.62363751 567.76312435 -113.93802297 556.54234682 -136.92959595 541.58895874 C-139.09777619 540.01930407 -139.09777619 540.01930407 -141.26553345 540.19052124 C-142.60189363 538.86022165 -143.93448517 537.52613572 -145.26553345 536.19052124 C-147.39427722 534.63351309 -149.5301547 533.11990665 -151.70303345 531.62802124 C-157.86751036 527.31702246 -163.59576975 522.64677248 -169.2850647 517.73348999 C-171.89239649 515.5088858 -174.54022639 513.39216017 -177.26553345 511.31552124 C-180.53068149 508.80888309 -183.42246257 506.17939062 -186.26553345 503.19052124 C-187.55642308 501.91889862 -188.84816959 500.64814557 -190.14053345 499.37802124 C-195.08132689 494.4372278 -199.61754209 489.18897866 -204.07803345 483.81552124 C-206.16462381 481.23107371 -206.16462381 481.23107371 -208.26553345 479.19052124 C-218.62790733 465.90542652 -227.55794328 451.73252308 -236.07022095 437.2124939 C-237.05970972 435.53868956 -238.08051496 433.88344283 -239.10928345 432.23348999 C-240.26553345 430.19052124 -240.26553345 430.19052124 -240.26553345 428.19052124 C-240.92553345 427.86052124 -241.58553345 427.53052124 -242.26553345 427.19052124 C-243.17593384 425.62191772 -243.17593384 425.62191772 -244.1131897 423.56161499 C-244.46663452 422.78616333 -244.82007935 422.01071167 -245.18423462 421.21176147 C-245.56168823 420.3591272 -245.93914185 419.50649292 -246.32803345 418.62802124 C-246.92031738 417.29782959 -246.92031738 417.29782959 -247.52456665 415.94076538 C-252.23409285 405.19864474 -256.35317652 394.2448474 -260.26553345 383.19052124 C-260.55557251 382.37261108 -260.84561157 381.55470093 -261.1444397 380.71200562 C-269.1135771 357.86329523 -273.30357371 334.26004294 -275.26553345 310.19052124 C-275.341427 309.28221558 -275.41732056 308.37390991 -275.49551392 307.43807983 C-279.22992891 260.12653447 -268.59471433 213.29610699 -249.20791626 170.29403687 C-248.30726733 168.28367647 -247.43330261 166.26412489 -246.57022095 164.23739624 C-244.29108513 158.9148635 -241.28113288 154.12618685 -238.26553345 149.19052124 C-237.85899536 148.52278687 -237.45245728 147.85505249 -237.03359985 147.16708374 C-227.67782288 131.86567476 -217.78978417 116.56626892 -205.4256897 103.49130249 C-203.57023392 101.51505755 -201.79712898 99.50045586 -200.0272522 97.44833374 C-196.18900681 93.04649789 -192.14662854 88.8794235 -188.01553345 84.75302124 C-187.26828003 84.00657349 -186.52102661 83.26012573 -185.75112915 82.49105835 C-180.97828213 77.77073376 -176.14078308 73.35560016 -170.85147095 69.21786499 C-168.01921803 66.99741293 -165.30755031 64.66085678 -162.57803345 62.31552124 C-145.05070053 47.73566023 -124.92043776 35.76263811 -104.26553345 26.19052124 C-103.43779419 25.80154663 -102.61005493 25.41257202 -101.75723267 25.0118103 C-74.44940007 12.27975078 -45.90981893 4.66755407 -15.9491272 1.54989624 C-4.38062581 0.00069373 -4.38062581 0.00069373 0 0 Z M-32.26553345 19.19052124 C-33.23168579 19.38388062 -34.19783813 19.57723999 -35.19326782 19.77645874 C-71.12722807 27.21582176 -106.28284501 40.7685736 -136.26553345 62.19052124 C-137.12839966 62.80081177 -137.12839966 62.80081177 -138.00869751 63.4234314 C-147.15581597 69.91005061 -155.82960632 76.80631731 -164.26553345 84.19052124 C-165.10342407 84.91626343 -165.9413147 85.64200562 -166.80459595 86.38973999 C-176.88493459 95.27160188 -186.73124015 104.79854772 -195.26553345 115.19052124 C-195.87848267 115.91682739 -195.87848267 115.91682739 -196.5038147 116.6578064 C-217.83677529 141.97942969 -235.40525071 172.49594356 -245.57559204 204.06161499 C-246.29079645 206.26847359 -247.03655163 208.46350649 -247.7850647 210.65927124 C-270.36884947 278.01842216 -261.66652467 352.42765755 -230.26553345 415.56552124 C-228.95937459 418.12207255 -227.61990462 420.65923022 -226.26553345 423.19052124 C-225.92586548 423.8311853 -225.58619751 424.47184937 -225.23623657 425.13192749 C-217.04815564 440.4712374 -207.60505539 454.99076358 -196.26553345 468.19052124 C-195.49596313 469.14313843 -194.72639282 470.09575562 -193.9335022 471.07723999 C-182.54677949 485.11006274 -169.5729917 498.14815647 -155.26553345 509.19052124 C-153.45115144 510.7091088 -151.63870058 512.23000619 -149.82803345 513.75302124 C-139.12967548 522.47467273 -127.24301668 529.39724457 -115.26553345 536.19052124 C-114.54011353 536.60592163 -113.8146936 537.02132202 -113.06729126 537.4493103 C-52.51895408 571.82184614 18.75673028 576.3984588 85.13290405 558.74057007 C90.33475421 557.30366423 94.93991062 555.69752205 99.73446655 553.19052124 C101.15163339 552.69263484 102.57709908 552.21805342 104.00790405 551.76083374 C123.75650872 545.39271404 141.21756662 534.50242081 157.73446655 522.19052124 C158.42363159 521.67940796 159.11279663 521.16829468 159.82284546 520.64169312 C167.91454999 514.62046503 175.79602031 508.52523101 183.1446228 501.60458374 C185.21204783 499.67748168 187.30820462 497.82614013 189.4493103 495.98348999 C194.23932555 491.80916516 198.74131306 487.36751581 203.23446655 482.87802124 C204.05688843 482.06784546 204.8793103 481.25766968 205.72665405 480.42294312 C206.50266968 479.64886108 207.2786853 478.87477905 208.07821655 478.07723999 C208.78140015 477.37816528 209.48458374 476.67909058 210.20907593 475.95883179 C211.95219374 474.32734148 211.95219374 474.32734148 211.73446655 472.19052124 C212.72446655 471.86052124 213.71446655 471.53052124 214.73446655 471.19052124 C217.65980118 468.08191264 220.14710132 464.58201126 222.73446655 461.19052124 C223.65746101 460.00548314 224.58064697 458.82059418 225.5039978 457.63583374 C233.271966 447.57322399 240.19630341 437.0882147 246.73446655 426.19052124 C247.17000854 425.46671265 247.60555054 424.74290405 248.05429077 423.99716187 C284.92739913 362.01745031 294.42722949 287.31367966 276.86972046 217.6902771 C274.17749445 207.62103062 270.51711768 197.89264822 266.73446655 188.19052124 C266.48084351 187.52858765 266.22722046 186.86665405 265.96591187 186.18466187 C253.90148989 154.97711616 232.93689153 126.96739442 209.73446655 103.19052124 C209.1734021 102.60899292 208.61233765 102.0274646 208.03427124 101.42831421 C200.98756708 94.13417789 193.74352212 87.43537933 185.73446655 81.19052124 C184.37052811 80.09889394 183.00730144 79.00637699 181.6446228 77.91317749 C163.74868305 63.65403443 144.63360106 52.12875653 124.23446655 41.81552124 C123.62465942 41.50590454 123.01485229 41.19628784 122.38656616 40.87728882 C117.28620391 38.34535524 112.04196134 36.2462547 106.73446655 34.19052124 C105.38771851 33.66434204 105.38771851 33.66434204 104.01376343 33.12753296 C88.19727326 27.01911433 72.40056392 22.33506791 55.73446655 19.19052124 C54.80505249 19.01263062 53.87563843 18.83473999 52.9180603 18.65145874 C25.84212345 13.74272774 -5.28547681 13.72720823 -32.26553345 19.19052124 Z M193.73446655 512.19052124 C193.40446655 512.85052124 193.07446655 513.51052124 192.73446655 514.19052124 C193.39446655 514.19052124 194.05446655 514.19052124 194.73446655 514.19052124 C194.40446655 513.53052124 194.07446655 512.87052124 193.73446655 512.19052124 Z " fill="#D86A41" transform="translate(477.2655334472656,191.80947875976563)"/>
<path d="M0 0 C10.25907829 8.29906773 17.57755763 18.21333796 22.19677734 30.63818359 C22.49583984 31.39744141 22.79490234 32.15669922 23.10302734 32.93896484 C28.11798838 47.86776088 26.24946494 65.78668614 19.68896484 79.87646484 C10.48040518 96.73027055 -4.30512806 108.18353923 -22.49072266 113.95068359 C-42.11738864 118.81762 -62.72865016 116.20510421 -80.48681641 106.66943359 C-95.38922945 97.54192501 -104.70944986 85.37486564 -109.80322266 68.63818359 C-113.68163864 51.65805392 -111.18991961 34.21298833 -102.48681641 19.25927734 C-92.05419502 3.01730762 -76.89102329 -7.77299837 -58.11694336 -12.27905273 C-37.85051566 -16.46885165 -16.61155757 -12.54525699 0 0 Z M-80.95947266 19.70068359 C-89.87149869 29.01175557 -93.81435971 40.13827872 -93.79931641 52.97021484 C-93.07321475 66.24088126 -88.80514515 76.61205841 -78.80322266 85.63818359 C-78.33787109 86.10740234 -77.87251953 86.57662109 -77.39306641 87.06005859 C-67.4047485 96.58209139 -54.24671355 99.73393909 -40.80322266 99.63818359 C-25.77532433 98.74306265 -13.06855154 92.67341215 -2.80322266 81.63818359 C6.2040745 70.57318493 8.94161921 58.79698134 7.75927734 44.75146484 C6.4116006 33.00548383 -0.49963902 22.49290682 -9.58837891 15.11474609 C-32.9099264 -0.43295223 -60.3591507 -0.00397219 -80.95947266 19.70068359 Z " fill="#DD7044" transform="translate(387.80322265625,407.36181640625)"/>
<path d="M0 0 C0.91910156 0.36351562 1.83820313 0.72703125 2.78515625 1.1015625 C21.33106943 9.00972355 33.66131768 21.99394973 41.95703125 40.19921875 C47.88158431 56.10897361 46.42981539 74.61423768 39.6796875 90.01171875 C30.94399669 107.12508025 16.98881432 117.9541485 -1 124 C-19.24683899 129.34443854 -39.53611059 126.64010982 -56.15234375 117.76171875 C-67.38668534 110.81152937 -76.24517553 101.8893075 -82 90 C-82.556875 88.89591797 -82.556875 88.89591797 -83.125 87.76953125 C-89.94976331 72.79017942 -89.10145532 54.75722052 -84.27734375 39.375 C-78.19141882 23.29475799 -66.26006876 10.67676961 -51 3 C-35.62842621 -3.89043192 -16.00097236 -6.40038894 0 0 Z M-43 19 C-43.91910156 19.48597656 -44.83820312 19.97195313 -45.78515625 20.47265625 C-58.04519103 27.60607401 -65.66470266 37.70825243 -69.3125 51.375 C-71.83920311 65.16147714 -69.23626448 78.02139678 -61.62890625 89.78515625 C-53.7187989 100.54062596 -42.18116812 106.94784209 -29 109 C-13.00533692 109.97050464 -0.29280756 107.0643025 12.5078125 97.03515625 C21.20459465 89.11961047 26.91689818 77.73360304 28 66 C28.06960938 65.27683594 28.13921875 64.55367187 28.2109375 63.80859375 C28.81342243 50.85516765 23.38918044 40.18878282 15.4375 30.375 C6.93496204 21.20591509 -4.24727347 15.37991795 -16.6796875 14.69140625 C-26.05360261 14.3673457 -34.56388477 14.45124667 -43 19 Z " fill="#D15C3B" transform="translate(658,397)"/>
<path d="M0 0 C0.64001953 0.62455078 0.64001953 0.62455078 1.29296875 1.26171875 C1.29296875 1.92171875 1.29296875 2.58171875 1.29296875 3.26171875 C1.88207031 3.49890625 2.47117187 3.73609375 3.078125 3.98046875 C10.65847969 8.36557693 15.62063887 20.17756726 18.265625 28.21875 C22.93937185 45.84855788 20.37479481 62.33343155 11.3359375 78.15625 C2.77114989 91.17538221 -8.23942671 98.9846007 -22.70703125 104.26171875 C-24.15335938 104.79345703 -24.15335938 104.79345703 -25.62890625 105.3359375 C-42.73619492 110.48114996 -61.05014997 107.07953735 -76.70703125 99.26171875 C-91.94524396 90.3112267 -102.15802764 77.3327108 -106.70703125 60.26171875 C-109.76740819 48.22560542 -108.43869651 34.58668805 -103.70703125 23.26171875 C-103.34480469 22.38257813 -102.98257813 21.5034375 -102.609375 20.59765625 C-95.16465622 4.29498394 -81.95364848 -6.14200135 -65.70703125 -12.73828125 C-42.5791324 -20.86429977 -19.03895232 -14.3282837 0 0 Z M-78.8046875 16.5 C-86.01339916 25.36166465 -90.83120636 35.68239006 -90.70703125 47.26171875 C-88.74515935 61.81226869 -83.75385543 72.05446124 -72.1328125 81.3125 C-61.72493072 88.40809239 -50.28253954 91.73764667 -37.70703125 90.26171875 C-29.15390077 88.48935877 -21.83825933 85.27251087 -14.70703125 80.26171875 C-14.07152344 79.82214844 -13.43601562 79.38257813 -12.78125 78.9296875 C-5.30042574 73.17393136 0.73908958 63.61274164 2.29296875 54.26171875 C3.34855736 41.77938343 2.26780108 30.03731748 -6.109375 20.0546875 C-6.63660156 19.46300781 -7.16382813 18.87132812 -7.70703125 18.26171875 C-8.16207031 17.68035156 -8.61710938 17.09898437 -9.0859375 16.5 C-15.09954153 9.51291437 -26.48484272 3.33907722 -35.70703125 2.26171875 C-52.46954021 1.19660099 -66.78096556 3.67021849 -78.8046875 16.5 Z " fill="#CF593A" transform="translate(619.70703125,572.73828125)"/>
<path d="M0 0 C13.18855825 10.48461159 22.45102834 24.33970062 24.97314453 41.15380859 C26.82285795 58.34832774 21.42729698 73.92055036 11.25048828 87.73193359 C3.37781367 97.48412061 -8.82116559 105.10939895 -20.74951172 108.73193359 C-21.47654297 108.95494141 -22.20357422 109.17794922 -22.95263672 109.40771484 C-40.15371119 113.70798346 -58.38621242 110.60642507 -73.61279297 101.84130859 C-87.76463956 92.32450017 -98.37323716 78.74599829 -102.35473633 61.95849609 C-105.43992049 44.55782847 -101.78930277 28.17895575 -91.74951172 13.73193359 C-69.60375678 -14.42822601 -29.45294337 -21.34783532 0 0 Z M-72.65136719 18.37255859 C-81.19929006 26.96332104 -85.59697043 37.07650318 -86.12451172 49.23193359 C-85.54676654 62.54414552 -79.9969754 73.50307232 -70.44091797 82.62255859 C-59.66445983 91.06854901 -47.35335618 94.78098628 -33.74951172 93.73193359 C-20.60539694 91.8590675 -8.95525421 85.21253539 -0.74951172 74.73193359 C6.36132707 63.27813091 8.9478526 52.05998823 6.18798828 38.85693359 C2.92076344 26.95273937 -4.8613545 17.48341563 -15.40185547 11.13427734 C-34.71351642 1.1735259 -56.71163338 3.20254011 -72.65136719 18.37255859 Z " fill="#D4623E" transform="translate(442.74951171875,569.26806640625)"/>
<path d="M0 0 C8.53925013 7.10097668 16.09866664 16.90928118 19.63671875 27.5234375 C19.63671875 28.5134375 19.63671875 29.5034375 19.63671875 30.5234375 C20.29671875 30.8534375 20.95671875 31.1834375 21.63671875 31.5234375 C24.74282806 49.22826059 23.01011118 67.41386367 12.63671875 82.5234375 C1.17516405 97.26286485 -13.04067075 106.27855446 -31.515625 109.0546875 C-48.89659308 111.17216584 -66.14180676 107.4053086 -80.17578125 96.7109375 C-87.97651214 90.48242047 -93.13490635 84.43068326 -97.67578125 75.5859375 C-98.18298706 74.60149658 -98.18298706 74.60149658 -98.70043945 73.59716797 C-105.57623464 59.49717145 -105.62217384 41.29477286 -100.609375 26.5859375 C-93.66982404 9.53074015 -82.13171833 -1.80276672 -65.36328125 -9.2890625 C-43.61087207 -17.77780754 -18.51594351 -14.2396291 0 0 Z M-75.46484375 18.76171875 C-84.13501671 29.44263395 -87.68403629 40.75710612 -86.36328125 54.5234375 C-84.04707977 66.79344156 -77.95783615 76.69768388 -67.796875 84.0234375 C-55.44886529 91.63440978 -42.04908116 93.59203815 -27.83203125 90.83984375 C-15.68706386 87.06801754 -6.06159106 79.30698021 0.63671875 68.5234375 C5.89803569 57.70110836 7.01399901 46.08806383 3.63671875 34.5234375 C-0.31028075 23.43751718 -8.53562734 14.57171603 -18.6484375 8.7421875 C-25.87589113 5.49763278 -32.23780593 3.98747245 -40.17578125 4.0859375 C-41.05161865 4.09496094 -41.92745605 4.10398437 -42.82983398 4.11328125 C-55.94598639 4.46223754 -66.40070614 9.10790676 -75.46484375 18.76171875 Z " fill="#D96940" transform="translate(530.36328125,281.4765625)"/>
<path d="M0 0 C8.12146523 6.76094627 13.32944292 15.39285395 15.28515625 25.90234375 C16.3363551 40.24000681 13.71510169 51.74906126 4.28515625 62.90234375 C-2.43403251 70.33263455 -12.49747905 75.51691769 -22.55859375 76.140625 C-34.37791118 76.42118713 -44.02466843 75.3902065 -53.71484375 67.90234375 C-54.276875 67.495 -54.83890625 67.08765625 -55.41796875 66.66796875 C-64.07441292 59.9686337 -68.14282208 50.54981824 -69.71484375 39.90234375 C-70.71330659 26.36762521 -68.37762768 15.56851601 -60 4.671875 C-43.95989318 -12.86033478 -18.45183267 -13.83156395 0 0 Z M-46.0234375 16.06640625 C-51.78059303 22.31551272 -53.02298408 27.64645497 -52.93359375 36.015625 C-52.44204373 42.50232975 -50.43528838 48.30947871 -45.71484375 52.90234375 C-37.53466266 58.73113676 -30.77626383 59.82777918 -20.71484375 58.90234375 C-13.24198856 56.77292829 -8.49019019 52.60576416 -4.71484375 45.90234375 C-1.3964251 39.51785768 -0.56848423 33.35131046 -2.37109375 26.35546875 C-5.02136625 18.81590043 -9.08512013 13.95690429 -16.02734375 10.02734375 C-27.48380999 6.53215066 -37.1583977 7.57745905 -46.0234375 16.06640625 Z " fill="#D35F3C" transform="translate(520.71484375,440.09765625)"/>
<path d="M0 0 C0 0.66 0 1.32 0 2 C2.64 2 5.28 2 8 2 C8 2.33 8 2.66 8 3 C1.54164798 3.09801883 -4.84342741 3.0543789 -11.28125 2.5 C-23.15036275 1.67311677 -35.04628242 1.89462982 -46.9375 1.9375 C-49.37434804 1.94252577 -51.81119708 1.94708677 -54.24804688 1.95117188 C-60.16538684 1.96209047 -66.08268861 1.97874297 -72 2 C-52.27292491 -7.86353754 -21.20325777 -2.06807391 0 0 Z " fill="#D4613D" transform="translate(810,692)"/>
<path d="M0 0 C13.94625653 -0.85970074 13.94625653 -0.85970074 17.875 2.125 C20 5 20 5 20.625 8.0625 C19.86069761 11.65472123 18.95152378 12.84618535 16 15 C11.95738417 16.19313314 8.79890016 15.83056377 4.6875 15.0625 C3.61886719 14.86785156 2.55023437 14.67320312 1.44921875 14.47265625 C0.64097656 14.31667969 -0.16726563 14.16070313 -1 14 C-1 14.66 -1 15.32 -1 16 C-1.99 15.67 -2.98 15.34 -4 15 C-4 14.67 -4 14.34 -4 14 C-9.61 13.34 -15.22 12.68 -21 12 C-21 11.67 -21 11.34 -21 11 C-24.3 10.67 -27.6 10.34 -31 10 C-31 9.67 -31 9.34 -31 9 C-17.82128674 8.58911633 -5.29909305 9.61300342 7.71435547 11.72460938 C10.17556176 12.02115292 12.52351696 12.11278505 15 12 C16.35618499 10.87465895 16.35618499 10.87465895 16.0625 7.9375 C16.041875 6.968125 16.02125 5.99875 16 5 C12.41278829 3.43920222 9.041614 2.52509152 5.1875 1.875 C3.72376953 1.62363281 3.72376953 1.62363281 2.23046875 1.3671875 C1.49441406 1.24601563 0.75835938 1.12484375 0 1 C0 0.67 0 0.34 0 0 Z " fill="#CC5734" transform="translate(819,695)"/>
<path d="M0 0 C-8.46316457 7.12246523 -21.89207243 9.69444958 -32.3125 12.8125 C-33.3015332 13.11446289 -34.29056641 13.41642578 -35.30957031 13.72753906 C-41.87380769 15.6427467 -48.17319823 16.63497952 -55 17 C-51.53057379 15.17961915 -48.26993354 14.23827855 -44.4375 13.375 C-42.73400391 12.98441406 -42.73400391 12.98441406 -40.99609375 12.5859375 C-38 12 -38 12 -35 12 C-35 11.34 -35 10.68 -35 10 C-32.39741676 9.16142312 -29.79314353 8.32896656 -27.1875 7.5 C-26.44951172 7.26152344 -25.71152344 7.02304687 -24.95117188 6.77734375 C-21.86744804 5.80059864 -19.25504191 5 -16 5 C-15.67 4.34 -15.34 3.68 -15 3 C-10.12560517 0.76290932 -5.38029909 -0.41386916 0 0 Z " fill="#D45D37" transform="translate(592,741)"/>
<path d="M0 0 C0.33 0.66 0.66 1.32 1 2 C1.66 2 2.32 2 3 2 C5.61400396 12.9383618 6.61014958 21.93022162 5 33 C4.34 33 3.68 33 3 33 C2.67 33.66 2.34 34.32 2 35 C2.03480469 33.22109375 2.03480469 33.22109375 2.0703125 31.40625 C2.21181617 20.75478261 1.62617229 10.52656169 0 0 Z " fill="#CF5B39" transform="translate(462,597)"/>
<path d="M0 0 C0.66 0.33 1.32 0.66 2 1 C-0.19001691 5.17426042 -2.669046 7.61646319 -6.375 10.5 C-10.17581365 13.47363933 -13.62735852 16.54760011 -17 20 C-19.625 22.375 -19.625 22.375 -22 24 C-22.99 23.67 -23.98 23.34 -25 23 C-18.72255092 16.5039937 -12.4024298 10.48099101 -5.3125 4.875 C-3.40983152 3.33229583 -1.68431438 1.77296251 0 0 Z " fill="#E4814E" transform="translate(312,256)"/>
<path d="M0 0 C1.35543606 2.71087212 0.45283669 4.21658932 -0.38598633 7.00195312 C-4.05355359 19.30981303 -2.61328844 30.43037874 -1 43 C-6.66404177 37.33595823 -6.08173043 23.85648146 -6.11474609 16.11865234 C-5.82905374 10.84367734 -4.24729046 5.76457341 -2 1 C-1.34 0.67 -0.68 0.34 0 0 Z " fill="#CE522F" transform="translate(518,595)"/>
<path d="M0 0 C0.71502686 0.0007251 1.43005371 0.0014502 2.16674805 0.00219727 C2.88000244 0.00147217 3.59325684 0.00074707 4.328125 0 C18.19818247 0.00155581 31.92153824 0.84050317 45.72924805 2.18969727 C45.72924805 2.51969727 45.72924805 2.84969727 45.72924805 3.18969727 C23.28924805 3.18969727 0.84924805 3.18969727 -22.27075195 3.18969727 C-22.27075195 2.85969727 -22.27075195 2.52969727 -22.27075195 2.18969727 C-21.31362305 2.09881836 -21.31362305 2.09881836 -20.3371582 2.00610352 C-19.09772461 1.88041992 -19.09772461 1.88041992 -17.83325195 1.75219727 C-17.00954102 1.67098633 -16.18583008 1.58977539 -15.3371582 1.50610352 C-5.50514038 0.00063387 -5.50514038 0.00063387 0 0 Z " fill="#E58E64" transform="translate(477.270751953125,191.810302734375)"/>
<path d="M0 0 C13.94625653 -0.85970074 13.94625653 -0.85970074 17.875 2.125 C20 5 20 5 20.625 8.0625 C19.86069761 11.65472123 18.95152378 12.84618535 16 15 C12.10703829 16.33180269 8.98138179 15.83331247 5 15 C5 14.67 5 14.34 5 14 C8.3 14 11.6 14 15 14 C15.33 11.03 15.66 8.06 16 5 C12.41278829 3.43920222 9.041614 2.52509152 5.1875 1.875 C4.21167969 1.70742188 3.23585938 1.53984375 2.23046875 1.3671875 C1.49441406 1.24601563 0.75835938 1.12484375 0 1 C0 0.67 0 0.34 0 0 Z " fill="#C85A39" transform="translate(819,695)"/>
<path d="M0 0 C1.19252191 3.51561653 1.02764408 3.93833244 -0.625 7.625 C-1.41301594 9.08530925 -2.2050665 10.54344483 -3 12 C-3.9229184 13.83019412 -4.83958152 15.66355586 -5.75 17.5 C-6.5 19 -7.25 20.5 -8 22 C-8.99 22 -9.98 22 -11 22 C-11.33 22.66 -11.66 23.32 -12 24 C-11.60491033 18.07365498 -11.30642674 16.18137623 -7 12 C-5.87645067 10.13969702 -4.81416972 8.24116484 -3.8125 6.3125 C-1.06944444 1.06944444 -1.06944444 1.06944444 0 0 Z " fill="#E17F4E" transform="translate(243,335)"/>
<path d="M0 0 C0.66 0.99 1.32 1.98 2 3 C1.360625 3.61875 0.72125 4.2375 0.0625 4.875 C-3.41845891 8.31628986 -6.54706946 12.0684777 -9.71875 15.79296875 C-12.07734855 18.07483207 -13.89783435 19.0223809 -17 20 C-15.30265036 15.70918446 -12.18073229 12.73370512 -9.0625 9.4375 C-8.52431641 8.86064453 -7.98613281 8.28378906 -7.43164062 7.68945312 C-4.99425493 5.08376459 -2.5319713 2.51420308 0 0 Z " fill="#E3804C" transform="translate(286,280)"/>
<path d="M0 0 C0.66 0 1.32 0 2 0 C2.81542431 2.08219049 3.62723189 4.16579761 4.4375 6.25 C4.88996094 7.41015625 5.34242188 8.5703125 5.80859375 9.765625 C7.34981689 13.94966685 8.12672646 17.34621949 8.1328125 21.80859375 C8.13474609 23.17661133 8.13474609 23.17661133 8.13671875 24.57226562 C8.13285156 25.51779297 8.12898437 26.46332031 8.125 27.4375 C8.12886719 28.37916016 8.13273438 29.32082031 8.13671875 30.29101562 C8.13542969 31.20431641 8.13414062 32.11761719 8.1328125 33.05859375 C8.13168457 33.88673584 8.13055664 34.71487793 8.12939453 35.56811523 C7.99327805 38.12633456 7.56029446 40.50315651 7 43 C6.67 43 6.34 43 6 43 C6 33.76 6 24.52 6 15 C5.34 15 4.68 15 4 15 C3.32779649 13.06441401 2.66241923 11.12645628 2 9.1875 C1.62875 8.10855469 1.2575 7.02960938 0.875 5.91796875 C0 3 0 3 0 0 Z " fill="#D77454" transform="translate(695,431)"/>
<path d="M0 0 C0.33 0 0.66 0 1 0 C1.06058594 0.83144531 1.12117187 1.66289062 1.18359375 2.51953125 C1.26738281 3.60621094 1.35117188 4.69289063 1.4375 5.8125 C1.55931641 7.43091797 1.55931641 7.43091797 1.68359375 9.08203125 C1.90212461 12.05989905 1.90212461 12.05989905 3 15 C2.01 15.495 2.01 15.495 1 16 C0.67 28.21 0.34 40.42 0 53 C-0.33 53 -0.66 53 -1 53 C-2.26486966 35.23344616 -1.93066976 17.71137989 0 0 Z " fill="#E0916A" transform="translate(203,449)"/>
<path d="M0 0 C6.86018685 1.92669078 13.42180217 4.26921872 20 7 C21.66586205 7.6686747 23.33231747 8.33587864 25 9 C22.63475547 10.5134719 21.53007211 11.10715253 18.72583008 10.5402832 C17.91525146 10.21374756 17.10467285 9.88721191 16.26953125 9.55078125 C15.38458984 9.19693359 14.49964844 8.84308594 13.58789062 8.47851562 C12.67201172 8.09373047 11.75613281 7.70894531 10.8125 7.3125 C9.4212793 6.76432617 9.4212793 6.76432617 8.00195312 6.20507812 C2.921651 4.12761734 2.921651 4.12761734 1 3 C0.67 2.01 0.34 1.02 0 0 Z " fill="#DD7246" transform="translate(578,208)"/>
<path d="M0 0 C5.52676817 2.19373912 7.89106433 7.19266429 11 12 C11.45375 12.69609375 11.9075 13.3921875 12.375 14.109375 C13.5 15.9375 13.5 15.9375 15 19 C14.67 19.99 14.34 20.98 14 22 C10.61774973 18.09740354 8.06797821 13.87860508 5.4609375 9.4453125 C4.23651379 7.39587602 2.96839221 5.4097141 1.625 3.4375 C0 1 0 1 0 0 Z " fill="#D36141" transform="translate(621,576)"/>
<path d="M0 0 C2 2 2 2 2.01171875 4.71484375 C1.90472656 5.77832031 1.79773438 6.84179688 1.6875 7.9375 C1.58824219 8.99839844 1.48898438 10.05929687 1.38671875 11.15234375 C1 14 1 14 0 17 C-0.66 17 -1.32 17 -2 17 C-2.33 20.63 -2.66 24.26 -3 28 C-3.33 28 -3.66 28 -4 28 C-3.53079589 18.40558492 -2.05805771 9.3583379 0 0 Z " fill="#DF8255" transform="translate(208,420)"/>
<path d="M0 0 C1.62567079 0.14715199 3.25586857 0.24721867 4.88671875 0.31640625 C5.82451172 0.35830078 6.76230469 0.40019531 7.72851562 0.44335938 C8.70498047 0.48267578 9.68144531 0.52199219 10.6875 0.5625 C12.16959961 0.62727539 12.16959961 0.62727539 13.68164062 0.69335938 C16.12095546 0.79941654 18.56037113 0.90147714 21 1 C21 1.33 21 1.66 21 2 C16.57088594 2.02486762 12.14180975 2.04293889 7.71264648 2.05493164 C6.2084075 2.05993555 4.70417332 2.06674073 3.19995117 2.07543945 C1.02781991 2.08767884 -1.14424659 2.09326786 -3.31640625 2.09765625 C-4.62037354 2.10289307 -5.92434082 2.10812988 -7.26782227 2.11352539 C-10.95201033 2.00145975 -14.36971466 1.59374786 -18 1 C-18 0.67 -18 0.34 -18 0 C-15.56288386 -0.19484938 -13.12562602 -0.38115178 -10.6875 -0.5625 C-9.99720703 -0.61857422 -9.30691406 -0.67464844 -8.59570312 -0.73242188 C-5.37487726 -0.96581505 -3.09672655 -1.03224218 0 0 Z " fill="#CE4A23" transform="translate(480,761)"/>
<path d="M0 0 C-0.99 0.33 -1.98 0.66 -3 1 C-3 1.66 -3 2.32 -3 3 C-8.78462973 4.49971882 -14.01464522 5.41278309 -20 5 C-20.99 4.34 -21.98 3.68 -23 3 C-20.10496617 2.49494737 -17.20912047 1.9957978 -14.3125 1.5 C-13.08756836 1.28537109 -13.08756836 1.28537109 -11.83789062 1.06640625 C-7.85021752 0.38834038 -4.06269596 -0.19858392 0 0 Z " fill="#D05C38" transform="translate(551,767)"/>
<path d="M0 0 C1.4609375 1.0703125 1.4609375 1.0703125 3 3 C3.4765625 6.1796875 3.4765625 6.1796875 3.625 9.875 C3.82282728 14.85886085 3.82282728 14.85886085 4.6484375 19.7578125 C5 22 5 22 3 25 C0.43056454 16.51168642 -0.38558031 8.85406634 0 0 Z " fill="#D76B48" transform="translate(451,467)"/>
<path d="M0 0 C0.33 0 0.66 0 1 0 C1.05865035 3.18742115 1.09381259 6.37470118 1.125 9.5625 C1.14175781 10.45775391 1.15851562 11.35300781 1.17578125 12.27539062 C1.21479596 17.60089905 0.75475782 21.96370689 -1 27 C-1.66 27 -2.32 27 -3 27 C-3.33 27.66 -3.66 28.32 -4 29 C-3.48550193 25.05551483 -2.84171403 21.20071632 -2 17.3125 C-0.81669304 11.58140883 -0.38078034 5.83195154 0 0 Z " fill="#D75B32" transform="translate(551,323)"/>
<path d="M0 0 C0.33 0 0.66 0 1 0 C1.33 11.22 1.66 22.44 2 34 C1.01 34.495 1.01 34.495 0 35 C-1.09783883 27.39644962 -0.93135165 20.09859121 -0.5625 12.4375 C-0.51029297 11.23802734 -0.45808594 10.03855469 -0.40429688 8.80273438 C-0.27568988 5.86815657 -0.14077908 2.93401479 0 0 Z " fill="#DF7F52" transform="translate(216,472)"/>
<path d="M0 0 C-1.65 1.32 -3.3 2.64 -5 4 C-5.66 3.67 -6.32 3.34 -7 3 C-8.70702735 2.93003986 -10.41668003 2.91559846 -12.125 2.9375 C-13.03507812 2.94652344 -13.94515625 2.95554688 -14.8828125 2.96484375 C-15.93082031 2.98224609 -15.93082031 2.98224609 -17 3 C-17 3.66 -17 4.32 -17 5 C-20.98196457 6.05404945 -23.98195309 5.84098656 -28 5 C-24.17973319 2.68163228 -20.02269856 2.10939837 -15.6875 1.375 C-14.95337891 1.2409375 -14.21925781 1.106875 -13.46289062 0.96875 C-8.90603492 0.17625336 -4.62383868 -0.1343784 0 0 Z " fill="#E48C5D" transform="translate(455,195)"/>
<path d="M0 0 C0 0.99 0 1.98 0 3 C-2.22582389 3.84334329 -4.45496026 4.67478551 -6.6875 5.5 C-7.62625977 5.85771484 -7.62625977 5.85771484 -8.58398438 6.22265625 C-12.18192299 7.5412725 -15.16520253 8.29329235 -19 8 C-17.31230998 4.62461996 -13.44906374 4.09849494 -10.0625 2.875 C-9.32064453 2.59785156 -8.57878906 2.32070313 -7.81445312 2.03515625 C-2.28544489 0 -2.28544489 0 0 0 Z " fill="#D5623C" transform="translate(663,722)"/>
<path d="M0 0 C0 0.66 0 1.32 0 2 C-3.27626375 2.9821994 -6.22788119 3.11580914 -9.640625 3.09765625 C-10.71054687 3.09443359 -11.78046875 3.09121094 -12.8828125 3.08789062 C-13.99398438 3.07951172 -15.10515625 3.07113281 -16.25 3.0625 C-17.93996094 3.05573242 -17.93996094 3.05573242 -19.6640625 3.04882812 C-22.44276217 3.03705397 -25.22135409 3.0206084 -28 3 C-28 2.67 -28 2.34 -28 2 C-24.64637391 1.6610769 -21.29202668 1.32988036 -17.9375 1 C-16.99455078 0.90460937 -16.05160156 0.80921875 -15.08007812 0.7109375 C-10.02487778 0.21774722 -5.07896392 -0.11270932 0 0 Z " fill="#DB6234" transform="translate(366,519)"/>
<path d="M0 0 C6.90101636 -0.62736512 11.43060024 0.81163026 17 5 C19.0625 7.8125 19.0625 7.8125 20 10 C17.87053461 8.94017391 15.74763891 7.87007152 13.6328125 6.78125 C9.16101796 4.49659485 4.84396642 2.40220081 0 1 C0 0.67 0 0.34 0 0 Z " fill="#DA6B45" transform="translate(414,575)"/>
<path d="M0 0 C1.87171875 -0.00386719 1.87171875 -0.00386719 3.78125 -0.0078125 C7.4529207 0.1233186 10.87996907 0.53721147 14.5 1.125 C14.5 1.455 14.5 1.785 14.5 2.125 C4.69345244 2.94326135 -4.67825593 3.21817357 -14.5 2.125 C-14.5 1.795 -14.5 1.465 -14.5 1.125 C-9.61551686 0.33190093 -4.96449764 -0.01025723 0 0 Z " fill="#E28054" transform="translate(489.5,267.875)"/>
<path d="M0 0 C0.99 0.99 1.98 1.98 3 3 C1.71226848 5.29395893 0.42003228 7.58516784 -0.875 9.875 C-1.23980469 10.52597656 -1.60460937 11.17695313 -1.98046875 11.84765625 C-3.48660536 14.50393354 -4.83019001 16.83019001 -7 19 C-6.33392561 14.59041892 -4.73375271 10.73427814 -2.9375 6.6875 C-2.65583984 6.04232422 -2.37417969 5.39714844 -2.08398438 4.73242188 C-1.3937257 3.15301642 -0.69746802 1.57623507 0 0 Z " fill="#E18253" transform="translate(227,365)"/>
<path d="M0 0 C0.66 0.33 1.32 0.66 2 1 C0.33333333 2.66666667 -1.33333333 4.33333333 -3 6 C-3.61875 6.721875 -4.2375 7.44375 -4.875 8.1875 C-7.68574347 10.58489884 -10.44087527 11.17866352 -14 12 C-9.73412126 7.45890328 -4.96387672 3.75264754 0 0 Z " fill="#E4834F" transform="translate(328,244)"/>
<path d="M0 0 C1.19993581 3.59980743 0.36525868 5.58520976 -0.51953125 9.171875 C-1.46358169 14.72872473 -1.14383381 20.38249056 -1 26 C-3.07988413 22.53635622 -3.40772066 19.4994686 -3.6875 15.5 C-3.77386719 14.3759375 -3.86023438 13.251875 -3.94921875 12.09375 C-3.99280247 9.43849575 -3.81502696 7.50023307 -3 5 C-2.34 5 -1.68 5 -1 5 C-0.67 3.35 -0.34 1.7 0 0 Z " fill="#DB7350" transform="translate(359,602)"/>
<path d="M0 0 C-1.66451111 3.32902223 -5.0635791 3.88330898 -8.41015625 5.1796875 C-11.37729395 6.11950487 -13.90573002 6.32571263 -17 6 C-14.1237651 3.6776572 -11.36219578 2.13434158 -7.9375 0.75 C-7.08027344 0.39421875 -6.22304688 0.0384375 -5.33984375 -0.328125 C-3 -1 -3 -1 0 0 Z " fill="#D4603B" transform="translate(602,751)"/>
<path d="M0 0 C-0.66 0 -1.32 0 -2 0 C-2 0.66 -2 1.32 -2 2 C-4.88265149 2.96088383 -6.67662271 3.11670941 -9.66796875 3.09765625 C-10.56064453 3.09443359 -11.45332031 3.09121094 -12.37304688 3.08789062 C-13.76620117 3.07532227 -13.76620117 3.07532227 -15.1875 3.0625 C-16.12787109 3.05798828 -17.06824219 3.05347656 -18.03710938 3.04882812 C-20.35813712 3.03704626 -22.67903644 3.02059558 -25 3 C-25 2.67 -25 2.34 -25 2 C-23.12054687 1.80083984 -23.12054687 1.80083984 -21.203125 1.59765625 C-19.55206754 1.41941709 -17.90102673 1.2410236 -16.25 1.0625 C-15.425 0.97548828 -14.6 0.88847656 -13.75 0.79882812 C-12.95078125 0.71181641 -12.1515625 0.62480469 -11.328125 0.53515625 C-10.5949707 0.456604 -9.86181641 0.37805176 -9.10644531 0.29711914 C-6.98331564 0.04708925 -6.98331564 0.04708925 -4.91699219 -0.59594727 C-3 -1 -3 -1 0 0 Z " fill="#D0512E" transform="translate(596,676)"/>
<path d="M0 0 C4.35970831 1.34849837 8.31341438 3.04907846 12.375 5.125 C13.43460938 5.66382813 14.49421875 6.20265625 15.5859375 6.7578125 C16.38257813 7.16773438 17.17921875 7.57765625 18 8 C18 8.33 18 8.66 18 9 C11.69217514 8.58862012 6.28547842 6.5034014 1 3 C0.67 2.01 0.34 1.02 0 0 Z " fill="#DC754B" transform="translate(603,218)"/>
<path d="M0 0 C5.56329746 0.70941377 10.97148045 1.81601851 16.4375 3.0625 C17.26443359 3.24876953 18.09136719 3.43503906 18.94335938 3.62695312 C20.96279004 4.0822005 22.98147387 4.54075861 25 5 C25 5.33 25 5.66 25 6 C22.45749979 5.88525534 19.91652662 5.7585303 17.375 5.625 C16.66214844 5.5940625 15.94929688 5.563125 15.21484375 5.53125 C10.82847392 5.28979845 7.1405166 4.60657269 3 3 C3 2.34 3 1.68 3 1 C2.01 0.67 1.02 0.34 0 0 Z " fill="#DC7550" transform="translate(417,751)"/>
<path d="M0 0 C1.4606285 2.64738916 2 3.89448334 2 7 C2.66 7 3.32 7 4 7 C4.696553 8.95513161 5.38199565 10.91422476 6.0625 12.875 C6.44535156 13.96554687 6.82820313 15.05609375 7.22265625 16.1796875 C8 19 8 19 7 21 C-0.39516129 6.71774194 -0.39516129 6.71774194 0 0 Z " fill="#E18055" transform="translate(278,471)"/>
<path d="M0 0 C0.66 0.99 1.32 1.98 2 3 C1.4225 3.556875 0.845 4.11375 0.25 4.6875 C-2.05765878 6.96647017 -2.05765878 6.96647017 -4 9.625 C-5.93552849 11.92344008 -7.24366461 12.91715395 -10 14 C-8.51872621 10.74715253 -6.65319465 8.11102873 -4.4375 5.3125 C-3.81746094 4.52488281 -3.19742187 3.73726563 -2.55859375 2.92578125 C-1 1 -1 1 0 0 Z " fill="#E28250" transform="translate(268,300)"/>
<path d="M0 0 C1 2 1 2 0.56274414 3.78759766 C0.30614014 4.48933105 0.04953613 5.19106445 -0.21484375 5.9140625 C-0.48876953 6.67460937 -0.76269531 7.43515625 -1.04492188 8.21875 C-1.33947266 9.0128125 -1.63402344 9.806875 -1.9375 10.625 C-2.22818359 11.42679687 -2.51886719 12.22859375 -2.81835938 13.0546875 C-3.53882525 15.03892138 -4.26855138 17.01978837 -5 19 C-6.94120031 13.17639906 -4.41575604 6.49035463 -2 1 C-1.34 0.67 -0.68 0.34 0 0 Z " fill="#E2804F" transform="translate(235,384)"/>
<path d="M0 0 C0.66 0.33 1.32 0.66 2 1 C2 3.31 2 5.62 2 8 C-3.23420787 11.27137992 -6.16605611 11.10643764 -12 10 C-12 9.67 -12 9.34 -12 9 C-8.7 9 -5.4 9 -2 9 C-1.34 6.03 -0.68 3.06 0 0 Z " fill="#C96243" transform="translate(836,700)"/>
<path d="M0 0 C1.33804687 0.04060547 1.33804687 0.04060547 2.703125 0.08203125 C3.37859375 0.11683594 4.0540625 0.15164063 4.75 0.1875 C4.75 0.8475 4.75 1.5075 4.75 2.1875 C6.73 2.1875 8.71 2.1875 10.75 2.1875 C10.75 2.5175 10.75 2.8475 10.75 3.1875 C4.15 3.1875 -2.45 3.1875 -9.25 3.1875 C-5.16748364 0.12561273 -4.68502071 -0.18493503 0 0 Z " fill="#DB6E48" transform="translate(402.25,571.8125)"/>
<path d="M0 0 C2.72923388 -0.0270817 5.45819637 -0.04687847 8.1875 -0.0625 C8.95642578 -0.07087891 9.72535156 -0.07925781 10.51757812 -0.08789062 C14.48526789 -0.10491934 18.12571234 0.01395885 22 1 C22 1.33 22 1.66 22 2 C17.59085217 3.10228696 13.51617599 3.07654536 9 3 C9 2.67 9 2.34 9 2 C6.03 1.67 3.06 1.34 0 1 C0 0.67 0 0.34 0 0 Z " fill="#D56849" transform="translate(567,557)"/>
<path d="M0 0 C-2.28560647 1.5306999 -4.57762667 3.04965044 -6.875 4.5625 C-7.52597656 5.00013672 -8.17695313 5.43777344 -8.84765625 5.88867188 C-10.52625497 6.98754836 -12.26023387 8.0007818 -14 9 C-14.66 8.67 -15.32 8.34 -16 8 C-14.875 6.0625 -14.875 6.0625 -13 4 C-9.8125 3.25 -9.8125 3.25 -7 3 C-6.67 2.01 -6.34 1.02 -6 0 C-3.42525708 -0.99667468 -2.51072708 -1.25536354 0 0 Z " fill="#E5824E" transform="translate(358,244)"/>
<path d="M0 0 C1 3 1 3 -0.43359375 6.35546875 C-1.09148807 7.6380304 -1.75989743 8.91524057 -2.4375 10.1875 C-2.77587891 10.84169922 -3.11425781 11.49589844 -3.46289062 12.16992188 C-4.29969098 13.78459299 -5.14869746 15.39292763 -6 17 C-7.34155445 12.97533665 -6.22380042 11.27850135 -4.6875 7.375 C-4.23761719 6.20710937 -3.78773438 5.03921875 -3.32421875 3.8359375 C-2 1 -2 1 0 0 Z " fill="#D45C36" transform="translate(738,592)"/>
<path d="M0 0 C0.66 1.32 1.32 2.64 2 4 C1.07038578 5.15224028 0.1309875 6.29659176 -0.8125 7.4375 C-1.59560547 8.39462891 -1.59560547 8.39462891 -2.39453125 9.37109375 C-4 11 -4 11 -7 12 C-5.44298069 7.32894208 -2.91552627 3.91294315 0 0 Z " fill="#E2814E" transform="translate(254,318)"/>
<path d="M0 0 C-2.55604391 2.98205122 -5.35053322 4.58490064 -9 6 C-11.19140625 5.07421875 -11.19140625 5.07421875 -13 4 C-11.40233897 3.13372601 -9.79660056 2.28233535 -8.1875 1.4375 C-7.29417969 0.96183594 -6.40085937 0.48617187 -5.48046875 -0.00390625 C-3 -1 -3 -1 0 0 Z " fill="#E3804D" transform="translate(372,221)"/>
<path d="M0 0 C1.77131561 0.30975468 3.54203778 0.62290425 5.3125 0.9375 C6.79169922 1.19853516 6.79169922 1.19853516 8.30078125 1.46484375 C11 2 11 2 14 3 C14 3.66 14 4.32 14 5 C14.66 5.33 15.32 5.66 16 6 C10.03435204 5.49228528 5.36190101 3.61407872 0 1 C0 0.67 0 0.34 0 0 Z " fill="#D76138" transform="translate(396,745)"/>
<path d="M0 0 C6.54849313 1.16204993 12.74538144 2.73383385 19 5 C17.203125 6.0546875 17.203125 6.0546875 15 7 C11.75 6.125 11.75 6.125 9 5 C9 4.34 9 3.68 9 3 C7.700625 2.87625 6.40125 2.7525 5.0625 2.625 C2.84765625 2.4140625 2.84765625 2.4140625 1 2 C0.67 1.34 0.34 0.68 0 0 Z " fill="#E07F54" transform="translate(559,202)"/>
<path d="M0 0 C0.33 0.66 0.66 1.32 1 2 C1.99 2.33 2.98 2.66 4 3 C7.18404569 9.02694363 7.18404569 9.02694363 6.578125 12.23046875 C6.38734375 12.81441406 6.1965625 13.39835938 6 14 C4.9923048 12.2335343 3.99408286 10.46166177 3 8.6875 C2.443125 7.70136719 1.88625 6.71523438 1.3125 5.69921875 C0 3 0 3 0 0 Z " fill="#DA6E48" transform="translate(343,637)"/>
<path d="M0 0 C-2.64212589 1.76141726 -5.2427764 3.23818698 -8.0625 4.6875 C-8.94035156 5.14511719 -9.81820313 5.60273438 -10.72265625 6.07421875 C-11.47417969 6.37972656 -12.22570312 6.68523437 -13 7 C-13.66 6.67 -14.32 6.34 -15 6 C-10.09817422 0.74804381 -7.24200793 -0.27853877 0 0 Z " fill="#E37C4C" transform="translate(330,413)"/>
<path d="M0 0 C0.65226563 0.13277344 1.30453125 0.26554688 1.9765625 0.40234375 C6.6408287 1.34482822 11.29868454 2.25768703 16 3 C16 3.33 16 3.66 16 4 C14.06257659 4.02703381 12.12504521 4.04641125 10.1875 4.0625 C9.10855469 4.07410156 8.02960937 4.08570313 6.91796875 4.09765625 C4 4 4 4 1 3 C0.67 2.01 0.34 1.02 0 0 Z " fill="#CF5330" transform="translate(613,517)"/>
<path d="M0 0 C0.66 0.33 1.32 0.66 2 1 C1.67 4.96 1.34 8.92 1 13 C0.34 13 -0.32 13 -1 13 C-1.02696365 11.20841511 -1.04637917 9.41671527 -1.0625 7.625 C-1.07410156 6.62726562 -1.08570313 5.62953125 -1.09765625 4.6015625 C-1 2 -1 2 0 0 Z " fill="#D5613C" transform="translate(761,509)"/>
<path d="M0 0 C6.27 0 12.54 0 19 0 C19 0.66 19 1.32 19 2 C19.66 2.33 20.32 2.66 21 3 C19.948125 2.855625 18.89625 2.71125 17.8125 2.5625 C11.89515692 1.81616844 5.94733899 1.42610508 0 1 C0 0.67 0 0.34 0 0 Z " fill="#DE6736" transform="translate(489,270)"/>
<path d="M0 0 C3.40312738 1.05875074 6.01353231 2.00902154 9 4 C9 4.66 9 5.32 9 6 C9.99 6.33 10.98 6.66 12 7 C11.01 7.495 11.01 7.495 10 8 C7.6171875 7.00390625 7.6171875 7.00390625 4.875 5.5625 C3.96492187 5.08941406 3.05484375 4.61632812 2.1171875 4.12890625 C1.41851563 3.75636719 0.71984375 3.38382813 0 3 C0 2.01 0 1.02 0 0 Z " fill="#DD744B" transform="translate(598,230)"/>
<path d="M0 0 C0.99 0.33 1.98 0.66 3 1 C5.20873282 5.63833893 4.99409592 9.02952038 4 14 C3.67 14 3.34 14 3 14 C2.01 9.38 1.02 4.76 0 0 Z " fill="#D56646" transform="translate(682,440)"/>
<path d="M0 0 C1.79206547 0.14084796 3.58364917 0.28783701 5.375 0.4375 C6.87160156 0.55931641 6.87160156 0.55931641 8.3984375 0.68359375 C11 1 11 1 13 2 C13 2.66 13 3.32 13 4 C15.475 4.99 15.475 4.99 18 6 C17.01 6.495 17.01 6.495 16 7 C13.3203125 6.07421875 13.3203125 6.07421875 10.125 4.6875 C9.07570313 4.23761719 8.02640625 3.78773438 6.9453125 3.32421875 C4.59687447 2.26835603 2.28894938 1.17764787 0 0 Z " fill="#E38156" transform="translate(355,412)"/>
<path d="M0 0 C-2.15223046 3.22834569 -2.47566883 3.46380996 -6 4.3125 C-7.051875 4.58513672 -7.051875 4.58513672 -8.125 4.86328125 C-8.74375 4.90839844 -9.3625 4.95351562 -10 5 C-10.66 4.34 -11.32 3.68 -12 3 C-10.5682384 2.30062798 -9.12932968 1.61587282 -7.6875 0.9375 C-6.48673828 0.36322266 -6.48673828 0.36322266 -5.26171875 -0.22265625 C-3 -1 -3 -1 0 0 Z " fill="#E38251" transform="translate(394,211)"/>
<path d="M0 0 C3.71888239 0.50712033 6.73454239 1.11608215 10 3 C10 3.66 10 4.32 10 5 C11.32 5.66 12.64 6.32 14 7 C10.2397015 6.41892368 7.46964968 5.34800504 4.1875 3.4375 C3.39730469 2.98246094 2.60710937 2.52742187 1.79296875 2.05859375 C1.20128906 1.70925781 0.60960937 1.35992188 0 1 C0 0.67 0 0.34 0 0 Z " fill="#DB704A" transform="translate(368,669)"/>
<path d="M0 0 C5.28 0.33 10.56 0.66 16 1 C16 1.33 16 1.66 16 2 C12.7 2.33 9.4 2.66 6 3 C6 3.33 6 3.66 6 4 C4.35 4 2.7 4 1 4 C0.67 2.68 0.34 1.36 0 0 Z " fill="#D56C4D" transform="translate(565,662)"/>
<path d="M0 0 C0 4.53846154 0 4.53846154 -1 7 C-3.5625 8.75 -3.5625 8.75 -6 10 C-6 6.41087588 -5.33563446 5.89142971 -3 3.3125 C-2.443125 2.68988281 -1.88625 2.06726563 -1.3125 1.42578125 C-0.879375 0.95527344 -0.44625 0.48476563 0 0 Z " fill="#DA714B" transform="translate(358,575)"/>
<path d="M0 0 C0.90105469 0.00902344 1.80210937 0.01804687 2.73046875 0.02734375 C3.41753906 0.03894531 4.10460937 0.05054688 4.8125 0.0625 C2.0528139 1.90229073 0.51508118 2.54573221 -2.625 3.25 C-3.38683594 3.42917969 -4.14867187 3.60835937 -4.93359375 3.79296875 C-7.31708496 4.0779963 -8.91854204 3.79125415 -11.1875 3.0625 C-10.1975 3.0625 -9.2075 3.0625 -8.1875 3.0625 C-8.1875 2.4025 -8.1875 1.7425 -8.1875 1.0625 C-5.17259443 0.05753148 -3.14568308 -0.04085303 0 0 Z " fill="#D8704D" transform="translate(559.1875,764.9375)"/>
<path d="M0 0 C0.33 0.66 0.66 1.32 1 2 C-0.21484375 4.6015625 -0.21484375 4.6015625 -1.9375 7.625 C-2.78634766 9.12933594 -2.78634766 9.12933594 -3.65234375 10.6640625 C-4.09707031 11.43492187 -4.54179687 12.20578125 -5 13 C-5.33 13 -5.66 13 -6 13 C-5.67 10.69 -5.34 8.38 -5 6 C-4.01 5.67 -3.02 5.34 -2 5 C-2 3.68 -2 2.36 -2 1 C-1.34 0.67 -0.68 0.34 0 0 Z " fill="#E3824F" transform="translate(254,345)"/>
<path d="M0 0 C3.47775306 1.87986652 6.07765153 3.47569447 8 7 C7.5703125 9.12890625 7.5703125 9.12890625 7 11 C5.82750647 9.54634731 4.66216184 8.08692581 3.5 6.625 C2.52546875 5.40683594 2.52546875 5.40683594 1.53125 4.1640625 C0 2 0 2 0 0 Z " fill="#D46037" transform="translate(725,319)"/>
<path d="M0 0 C0.99 0.33 1.98 0.66 3 1 C0.6875 3.5 0.6875 3.5 -2 6 C-5 6 -5 6 -7 5 C-5.90554162 4.13342884 -4.79902219 3.28207276 -3.6875 2.4375 C-3.07261719 1.96183594 -2.45773437 1.48617187 -1.82421875 0.99609375 C-1.22222656 0.66738281 -0.62023437 0.33867187 0 0 Z " fill="#E48451" transform="translate(337,238)"/>
<path d="M0 0 C2 1 2 1 3 3 C1.3789897 3.69685498 -0.24696066 4.38222861 -1.875 5.0625 C-2.77992188 5.44535156 -3.68484375 5.82820312 -4.6171875 6.22265625 C-7 7 -7 7 -9 6 C-6.03 4.02 -3.06 2.04 0 0 Z " fill="#E6844F" transform="translate(348,231)"/>
<path d="M0 0 C1.28222189 3.03070628 0.98589446 4.03596914 -0.25 7.1875 C-2 10 -2 10 -5 11 C-3.92289822 6.69159287 -2.96052484 3.36423277 0 0 Z " fill="#D26140" transform="translate(522,585)"/>
<path d="M0 0 C1 3 1 3 0.22265625 5.04296875 C-0.16019531 5.75066406 -0.54304687 6.45835937 -0.9375 7.1875 C-1.31777344 7.90292969 -1.69804688 8.61835937 -2.08984375 9.35546875 C-2.54037109 10.16951172 -2.54037109 10.16951172 -3 11 C-3.33 11 -3.66 11 -4 11 C-3.54177532 7.53058454 -3.10868317 4.32604951 -2 1 C-1.34 0.67 -0.68 0.34 0 0 Z " fill="#D5613C" transform="translate(747,571)"/>
<path d="M0 0 C4.47238653 1.41807378 8.71146306 3.11304374 13 5 C9.03640805 6.32119732 6.58296271 5.61559661 2.75 4.125 C1 3 1 3 0 0 Z " fill="#E27D51" transform="translate(316,499)"/>
<path d="M0 0 C1.13732426 3.40401948 0.83989957 5.77456664 0.0625 9.25 C-0.13214844 10.14203125 -0.32679688 11.0340625 -0.52734375 11.953125 C-0.68332031 12.62859375 -0.83929688 13.3040625 -1 14 C-1.33 14 -1.66 14 -2 14 C-3.28571429 5.42857143 -3.28571429 5.42857143 -2 2 C-1.34 2 -0.68 2 0 2 C0 1.34 0 0.68 0 0 Z " fill="#E28454" transform="translate(222,426)"/>
<path d="M0 0 C0.33 0.66 0.66 1.32 1 2 C0.00390625 4.3828125 0.00390625 4.3828125 -1.4375 7.125 C-1.91058594 8.03507812 -2.38367188 8.94515625 -2.87109375 9.8828125 C-3.24363281 10.58148438 -3.61617187 11.28015625 -4 12 C-4.33 12 -4.66 12 -5 12 C-4.10164835 4.21428571 -4.10164835 4.21428571 -2 1 C-1.34 0.67 -0.68 0.34 0 0 Z " fill="#E3814F" transform="translate(247,358)"/>
<path d="M0 0 C-4.95 2.475 -4.95 2.475 -10 5 C-10.99 4.34 -11.98 3.68 -13 3 C-11.40084119 2.30093058 -9.79544955 1.61610532 -8.1875 0.9375 C-7.29417969 0.55464844 -6.40085937 0.17179687 -5.48046875 -0.22265625 C-3 -1 -3 -1 0 0 Z " fill="#E27D4F" transform="translate(474,271)"/>
<path d="M0 0 C0.33 0.66 0.66 1.32 1 2 C0.01 3.485 0.01 3.485 -1 5 C-1.66 5 -2.32 5 -3 5 C-3.268125 5.61875 -3.53625 6.2375 -3.8125 6.875 C-5 9 -5 9 -8 11 C-3.8 1.9 -3.8 1.9 0 0 Z " fill="#D15630" transform="translate(443,643)"/>
<path d="M0 0 C0.33 0.66 0.66 1.32 1 2 C1.66 2 2.32 2 3 2 C3.66 4.97 4.32 7.94 5 11 C4.01 11.495 4.01 11.495 3 12 C2.49440092 10.56445975 1.9957251 9.1264798 1.5 7.6875 C1.2215625 6.88699219 0.943125 6.08648438 0.65625 5.26171875 C0 3 0 3 0 0 Z " fill="#DB7349" transform="translate(216,569)"/>
<path d="M0 0 C3.74525799 3.74525799 3.68909949 7.98270909 4 13 C0.87506296 9.87506296 0.04088867 7.08354985 -0.125 2.6875 C-0.08375 1.800625 -0.0425 0.91375 0 0 Z " fill="#D15430" transform="translate(587,467)"/>
<path d="M0 0 C1.0546875 1.859375 1.0546875 1.859375 2 4 C1.125 6.25 1.125 6.25 0 8 C-0.66 8 -1.32 8 -2 8 C-2.33 9.65 -2.66 11.3 -3 13 C-4.23593891 9.29218328 -3.5678132 8.32489747 -2.0625 4.8125 C-1.68222656 3.91144531 -1.30195313 3.01039063 -0.91015625 2.08203125 C-0.60980469 1.39496094 -0.30945313 0.70789063 0 0 Z " fill="#DE784F" transform="translate(433,301)"/>
<path d="M0 0 C-0.33 0.66 -0.66 1.32 -1 2 C-3.72265625 2.4140625 -3.72265625 2.4140625 -7.0625 2.625 C-8.16722656 2.69976563 -9.27195312 2.77453125 -10.41015625 2.8515625 C-11.26480469 2.90054688 -12.11945312 2.94953125 -13 3 C-10.85642985 0.85642985 -9.92072889 0.52040399 -7.0625 -0.1875 C-6.37285156 -0.36667969 -5.68320312 -0.54585937 -4.97265625 -0.73046875 C-3 -1 -3 -1 0 0 Z " fill="#D0532D" transform="translate(569,763)"/>
<path d="M0 0 C-0.99 1.485 -0.99 1.485 -2 3 C-6.29 2.67 -10.58 2.34 -15 2 C-15 1.67 -15 1.34 -15 1 C-9.91913204 0.15318867 -5.15171623 -0.09038099 0 0 Z " fill="#D87757" transform="translate(742,692)"/>
<path d="M0 0 C2.64752004 2.57784846 4.94432065 4.91648098 7 8 C6.625 10.1875 6.625 10.1875 6 12 C4.99157547 10.56839732 3.99352109 9.12948547 3 7.6875 C2.1646875 6.48673828 2.1646875 6.48673828 1.3125 5.26171875 C0 3 0 3 0 0 Z " fill="#D26646" transform="translate(517,642)"/>
<path d="M0 0 C2.45234885 0.98093954 3.7809268 1.68703828 5.3125 3.875 C6.12082372 6.37345514 5.71847013 7.52928976 5 10 C4.16121545 8.71186658 3.32913217 7.41936744 2.5 6.125 C2.0359375 5.40570313 1.571875 4.68640625 1.09375 3.9453125 C0 2 0 2 0 0 Z " fill="#D46139" transform="translate(736,335)"/>
<path d="M0 0 C3.59391114 1.33488128 6.75490696 2.96022723 10 5 C7 6 7 6 4.4375 5.3125 C1.70124563 3.83913226 1.05041579 2.86477034 0 0 Z " fill="#DB7148" transform="translate(355,724)"/>
<path d="M0 0 C-1 2 -1 2 -3.3125 3.1875 C-6.11989571 4.03624754 -7.301935 3.99928333 -10 3 C-3.375 -1.125 -3.375 -1.125 0 0 Z " fill="#D66443" transform="translate(552,563)"/>
<path d="M0 0 C3.91211733 1.15585285 6.8745041 2.35534962 10 5 C4.60158311 5.49076517 4.60158311 5.49076517 1.625 3.0625 C0 1 0 1 0 0 Z " fill="#CF5432" transform="translate(602,512)"/>
<path d="M0 0 C-2.85410334 1.50560497 -5.68124642 2.63216796 -8.75 3.625 C-9.54921875 3.88539063 -10.3484375 4.14578125 -11.171875 4.4140625 C-11.77515625 4.60742188 -12.3784375 4.80078125 -13 5 C-12.67 4.34 -12.34 3.68 -12 3 C-11.34 3 -10.68 3 -10 3 C-10 2.34 -10 1.68 -10 1 C-6.78548731 -0.60725635 -3.56387464 -0.05748185 0 0 Z " fill="#DB704F" transform="translate(626,412)"/>
<path d="M0 0 C2.97 0 5.94 0 9 0 C6.60236815 2.39763185 5.66726502 2.34280586 2.375 2.625 C1.55773437 2.69976563 0.74046875 2.77453125 -0.1015625 2.8515625 C-0.72804688 2.90054688 -1.35453125 2.94953125 -2 3 C-1.34 2.67 -0.68 2.34 0 2 C0 1.34 0 0.68 0 0 Z " fill="#D55A34" transform="translate(679,703)"/>
<path d="M0 0 C-5.14285714 4.42857143 -5.14285714 4.42857143 -9 5 C-8 2 -8 2 -5.625 0.25 C-3 -1 -3 -1 0 0 Z " fill="#E5814E" transform="translate(367,238)"/>
<path d="M0 0 C0 0.66 0 1.32 0 2 C-3.98196457 3.05404945 -6.98195309 2.84098656 -11 2 C-7.36576791 -0.32590854 -4.22911669 -0.16265833 0 0 Z " fill="#E38151" transform="translate(438,198)"/>
<path d="M0 0 C1.65 0 3.3 0 5 0 C4.01 0.495 4.01 0.495 3 1 C3 1.66 3 2.32 3 3 C0.36 3.66 -2.28 4.32 -5 5 C-3.625 3.5 -3.625 3.5 -2 2 C-1.34 2 -0.68 2 0 2 C0 1.34 0 0.68 0 0 Z " fill="#D35831" transform="translate(600,735)"/>
<path d="M0 0 C-5.75 5 -5.75 5 -8 5 C-7.8125 3.125 -7.8125 3.125 -7 1 C-2.66666667 -1.33333333 -2.66666667 -1.33333333 0 0 Z " fill="#D5613B" transform="translate(628,722)"/>
<path d="M0 0 C1.96301592 3.50538557 2.95902388 7.13351728 4 11 C3.01 10.67 2.02 10.34 1 10 C-0.33599181 6.99401842 -1.14345053 4.90852004 -0.625 1.625 C-0.41875 1.08875 -0.2125 0.5525 0 0 Z " fill="#DA6F4B" transform="translate(358,628)"/>
<path d="M0 0 C0.268125 0.639375 0.53625 1.27875 0.8125 1.9375 C1.88667752 4.33131686 1.88667752 4.33131686 5 5 C5 6.98 5 8.96 5 11 C0 4.63636364 0 4.63636364 0 0 Z " fill="#D97751" transform="translate(228,601)"/>
<path d="M0 0 C0.66 0.33 1.32 0.66 2 1 C-1.01887244 4.48331435 -3.56909529 5.79157144 -8 7 C-5.42215154 4.35247996 -3.08351902 2.05567935 0 0 Z " fill="#DD754D" transform="translate(371,565)"/>
<path d="M0 0 C3.95820859 0.56545837 6.6659053 1.80902348 10 4 C7.39417629 4.93065133 6.35801776 5.14917407 3.75 4.0625 C3.1725 3.711875 2.595 3.36125 2 3 C2 2.34 2 1.68 2 1 C1.34 0.67 0.68 0.34 0 0 Z " fill="#D86C48" transform="translate(427,562)"/>
<path d="M0 0 C0.33 0 0.66 0 1 0 C1.06058594 0.83144531 1.12117187 1.66289062 1.18359375 2.51953125 C1.26738281 3.60621094 1.35117188 4.69289063 1.4375 5.8125 C1.51871094 6.89144531 1.59992188 7.97039062 1.68359375 9.08203125 C1.90212461 12.05989905 1.90212461 12.05989905 3 15 C2.01 15 1.02 15 0 15 C0 10.05 0 5.1 0 0 Z " fill="#DF8153" transform="translate(203,449)"/>
<path d="M0 0 C0 0.99 0 1.98 0 3 C-3.3 3.33 -6.6 3.66 -10 4 C-9.67 3.34 -9.34 2.68 -9 2 C-2.88888889 0 -2.88888889 0 0 0 Z " fill="#D2562F" transform="translate(685,715)"/>
<path d="M0 0 C0.66 0.33 1.32 0.66 2 1 C0.68 2.65 -0.64 4.3 -2 6 C-3.32 5.67 -4.64 5.34 -6 5 C-4.06745228 2.9754262 -2.36841312 1.57894208 0 0 Z " fill="#D0552F" transform="translate(444,662)"/>
<path d="M0 0 C0.66 1.32 1.32 2.64 2 4 C0.625 7.25 0.625 7.25 -1 10 C-1.66 9.67 -2.32 9.34 -3 9 C-2.01 6.03 -1.02 3.06 0 0 Z " fill="#D46342" transform="translate(620,631)"/>
<path d="M0 0 C1 2 1 2 0.25 5.5625 C-0.1625 6.696875 -0.575 7.83125 -1 9 C-1.99 9.33 -2.98 9.66 -4 10 C-3.52449439 8.51965236 -3.04448784 7.04074979 -2.5625 5.5625 C-2.29566406 4.73878906 -2.02882813 3.91507813 -1.75390625 3.06640625 C-1 1 -1 1 0 0 Z " fill="#D25932" transform="translate(751,593)"/>
<path d="M0 0 C0.88492145 2.47778006 1.11637742 3.66056586 0.25 6.1875 C-1 8 -1 8 -4 9 C-2.94124926 5.59687262 -1.99097846 2.98646769 0 0 Z " fill="#E27B4B" transform="translate(286,426)"/>
<path d="M0 0 C3.63 0.33 7.26 0.66 11 1 C11 1.33 11 1.66 11 2 C4.565 2.495 4.565 2.495 -2 3 C-1.34 2.67 -0.68 2.34 0 2 C0 1.34 0 0.68 0 0 Z " fill="#E48256" transform="translate(332,410)"/>
<path d="M0 0 C2.62187494 1.04874998 3.79371361 1.64931313 5.25 4.125 C5.4975 4.74375 5.745 5.3625 6 6 C5.01 7.485 5.01 7.485 4 9 C0 2.25 0 2.25 0 0 Z " fill="#D9714C" transform="translate(728,348)"/>
<path d="M0 0 C0.66 0.99 1.32 1.98 2 3 C0.02 4.32 -1.96 5.64 -4 7 C-4 4 -4 4 -2 1.8125 C-1.34 1.214375 -0.68 0.61625 0 0 Z " fill="#E38756" transform="translate(274,293)"/>
<path d="M0 0 C2.25 0.25 2.25 0.25 4 1 C2.8125 2.5 2.8125 2.5 1 4 C-1.6875 4.1875 -1.6875 4.1875 -4 4 C-2.25 1.9375 -2.25 1.9375 0 0 Z " fill="#D25C36" transform="translate(607,746)"/>
<path d="M0 0 C3.7952131 1.49097658 5.61042731 3.75700849 8 7 C6.68 7 5.36 7 4 7 C2.02 3.535 2.02 3.535 0 0 Z " fill="#D65E33" transform="translate(292,693)"/>
<path d="M0 0 C0.66 0.33 1.32 0.66 2 1 C-0.36292656 3.52588702 -1.66462511 4.88820837 -5 6 C-5.66 5.34 -6.32 4.68 -7 4 C-1.7265625 0.77734375 -1.7265625 0.77734375 0 0 Z " fill="#D66746" transform="translate(602,654)"/>
<path d="M0 0 C3.45925163 1.2491742 6.14693203 2.67527795 9 5 C5.625 4.75 5.625 4.75 2 4 C0.5625 1.9375 0.5625 1.9375 0 0 Z " fill="#D56542" transform="translate(549,655)"/>
<path d="M0 0 C1.46726798 3.81489674 0.43336419 6.29011622 -1 10 C-1.33 10 -1.66 10 -2 10 C-2 7.03 -2 4.06 -2 1 C-1.34 0.67 -0.68 0.34 0 0 Z " fill="#D67151" transform="translate(766,554)"/>
<path d="M0 0 C0.66 0.33 1.32 0.66 2 1 C1.34 1.66 0.68 2.32 0 3 C0 3.99 0 4.98 0 6 C-1.65 6 -3.3 6 -5 6 C-3.35 4.02 -1.7 2.04 0 0 Z " fill="#D96F4B" transform="translate(467,439)"/>
<path d="M0 0 C1.0326802 2.78823655 1.04509293 3.8677274 0.0625 6.75 C-0.288125 7.4925 -0.63875 8.235 -1 9 C-1.33 9 -1.66 9 -2 9 C-2 6.36 -2 3.72 -2 1 C-1.34 0.67 -0.68 0.34 0 0 Z " fill="#E07642" transform="translate(221,383)"/>
<path d="M0 0 C3.40320742 1.01176437 4.75725331 1.64843582 6.8125 4.625 C7.204375 5.40875 7.59625 6.1925 8 7 C5.05043472 5.63055898 2.47531189 4.12169591 0 2 C0 1.34 0 0.68 0 0 Z " fill="#D76437" transform="translate(676,266)"/>
<path d="M0 0 C2.9375 0.8125 2.9375 0.8125 6 2 C6.33 2.99 6.66 3.98 7 5 C1.25 3.25 1.25 3.25 -1 1 C-0.67 0.67 -0.34 0.34 0 0 Z " fill="#DE7348" transform="translate(611,237)"/>
<path d="M0 0 C3.55780196 0.60990891 6.6828589 1.5783681 10 3 C6.52176885 4.15941038 4.54104422 3.70820884 1 3 C0.67 2.01 0.34 1.02 0 0 Z " fill="#DD7650" transform="translate(391,742)"/>
<path d="M0 0 C1.31571603 0.2547514 2.62760376 0.52934141 3.9375 0.8125 C4.66839844 0.96332031 5.39929688 1.11414063 6.15234375 1.26953125 C6.76207031 1.51058594 7.37179687 1.75164063 8 2 C8.33 2.99 8.66 3.98 9 5 C5.22454612 3.90931332 2.52956528 3.0916909 0 0 Z " fill="#DA7852" transform="translate(350,738)"/>
<path d="M0 0 C0.625 1.875 0.625 1.875 1 4 C0.34 4.66 -0.32 5.32 -1 6 C-1.99 6 -2.98 6 -4 6 C-2.84826645 3.53199953 -1.95216435 1.95216435 0 0 Z " fill="#D45F39" transform="translate(692,681)"/>
<path d="M0 0 C0.33 0.66 0.66 1.32 1 2 C0.22265625 3.9453125 0.22265625 3.9453125 -0.9375 6.125 C-1.31777344 6.84945312 -1.69804688 7.57390625 -2.08984375 8.3203125 C-2.39019531 8.87460937 -2.69054687 9.42890625 -3 10 C-3.66 8.68 -4.32 7.36 -5 6 C-3.35 4.02 -1.7 2.04 0 0 Z " fill="#D66D4F" transform="translate(536,594)"/>
<path d="M0 0 C0.99 0 1.98 0 3 0 C2.25 5.75 2.25 5.75 0 8 C-0.79953138 4.71303767 -1.09658936 3.28976808 0 0 Z " fill="#D56D4C" transform="translate(759,570)"/>
<path d="M0 0 C1.0625 1.8125 1.0625 1.8125 2 4 C1.02391783 6.92824652 -0.10786631 8.61426621 -2 11 C-1 3.57142857 -1 3.57142857 0 0 Z " fill="#DA7A5C" transform="translate(754,543)"/>
<path d="M0 0 C0.33 0 0.66 0 1 0 C1.33 3.63 1.66 7.26 2 11 C1.34 11 0.68 11 0 11 C-0.33 11.66 -0.66 12.32 -1 13 C-0.67 8.71 -0.34 4.42 0 0 Z " fill="#D7704E" transform="translate(519,469)"/>
<path d="M0 0 C0.6875 1.625 0.6875 1.625 1 4 C-0.4375 7.25 -0.4375 7.25 -2 10 C-3.43088528 7.13822943 -2.59991697 5.06624227 -2 2 C-1.34 2 -0.68 2 0 2 C0 1.34 0 0.68 0 0 Z " fill="#CE512C" transform="translate(685,471)"/>
<path d="M0 0 C0.99 0.33 1.98 0.66 3 1 C3.33 2.98 3.66 4.96 4 7 C2.68 6.34 1.36 5.68 0 5 C0 3.35 0 1.7 0 0 Z " fill="#D55F36" transform="translate(744,349)"/>
<path d="M0 0 C0.33 0.66 0.66 1.32 1 2 C-0.98 4.97 -0.98 4.97 -3 8 C-3.75 6.25 -3.75 6.25 -4 4 C-2.0625 1.75 -2.0625 1.75 0 0 Z " fill="#E4824E" transform="translate(264,329)"/>
<path d="M0 0 C1.32 0.66 2.64 1.32 4 2 C2.02 3.32 0.04 4.64 -2 6 C-1.125 1.125 -1.125 1.125 0 0 Z " fill="#E27D49" transform="translate(308,276)"/>
<path d="M0 0 C4.21912747 0.4794463 6.79663178 1.16625119 10 4 C7 5 7 5 5.17578125 4.22265625 C3.45052083 3.1484375 1.72526042 2.07421875 0 1 C0 0.67 0 0.34 0 0 Z " fill="#E37E52" transform="translate(508,271)"/>
<path d="M0 0 C3.37503669 1.1858237 5.64722731 2.27573689 8 5 C5.125 4.75 5.125 4.75 2 4 C0.625 1.9375 0.625 1.9375 0 0 Z " fill="#DD764C" transform="translate(628,231)"/>
<path d="M0 0 C0.33 0 0.66 0 1 0 C1 2.64 1 5.28 1 8 C0.67 8 0.34 8 0 8 C0 5.36 0 2.72 0 0 Z " fill="#D25F3D" transform="translate(760,464)"/>
<path d="M0 0 C2.31 0 4.62 0 7 0 C7 0.33 7 0.66 7 1 C4.69 1 2.38 1 0 1 C0 0.67 0 0.34 0 0 Z " fill="#DD7044" transform="translate(345,392)"/>
<path d="M0 0 C1.32 0.33 2.64 0.66 4 1 C2.68 1 1.36 1 0 1 C0 0.67 0 0.34 0 0 Z " fill="#BE5739" transform="translate(819,710)"/>
<path d="M0 0 C4 1 4 1 4 1 Z " fill="#CA5D3B" transform="translate(739,708)"/>
<path d="M0 0 C4 1 4 1 4 1 Z " fill="#D8673E" transform="translate(340,524)"/>
<path d="M0 0 C1 4 1 4 1 4 Z " fill="#CE5D3C" transform="translate(760,488)"/>
<path d="M0 0 C0.99 0.495 0.99 0.495 2 1 C1.34 1.66 0.68 2.32 0 3 C0 2.01 0 1.02 0 0 Z " fill="#CD5839" transform="translate(590,450)"/>
<path d="M0 0 C3 1 3 1 3 1 Z " fill="#CC5D3B" transform="translate(689,717)"/>
<path d="M0 0 C3 1 3 1 3 1 Z " fill="#B95134" transform="translate(827,711)"/>
<path d="M0 0 C0.99 0.495 0.99 0.495 2 1 C1.01 1.495 1.01 1.495 0 2 C0 1.34 0 0.68 0 0 Z " fill="#CC5C3A" transform="translate(724,710)"/>
<path d="M0 0 C3 1 3 1 3 1 Z " fill="#C45A3A" transform="translate(804,708)"/>
<path d="M0 0 C0.33 0.66 0.66 1.32 1 2 C0.34 1.67 -0.32 1.34 -1 1 C-0.67 0.67 -0.34 0.34 0 0 Z " fill="#D4623D" transform="translate(676,701)"/>
<path d="M0 0 C0.66 0.66 1.32 1.32 2 2 C1.34 2 0.68 2 0 2 C0 1.34 0 0.68 0 0 Z " fill="#D4633D" transform="translate(356,661)"/>
<path d="M0 0 C3 1 3 1 3 1 Z " fill="#CC5736" transform="translate(628,524)"/>
<path d="M0 0 C0.66 0.66 1.32 1.32 2 2 C1.34 2 0.68 2 0 2 C0 1.34 0 0.68 0 0 Z " fill="#DF7345" transform="translate(284,493)"/>
<path d="" fill="#D27249" transform="translate(0,0)"/>
<path d="" fill="#DA7043" transform="translate(0,0)"/>
<path d="M0 0 C3 1 3 1 3 1 Z " fill="#E07346" transform="translate(354,414)"/>
<path d="M0 0 C3 1 3 1 3 1 Z " fill="#D45E3B" transform="translate(640,413)"/>
<path d="M0 0 C0.66 0.66 1.32 1.32 2 2 C1.34 2 0.68 2 0 2 C0 1.34 0 0.68 0 0 Z " fill="#CE5D39" transform="translate(599,401)"/>
<path d="M0 0 C3 1 3 1 3 1 Z " fill="#D45F3B" transform="translate(632,392)"/>
<path d="M0 0 C3 1 3 1 3 1 Z " fill="#DF6F42" transform="translate(340,392)"/>
<path d="M0 0 C3 1 3 1 3 1 Z " fill="#DD7245" transform="translate(538,214)"/>
<path d="M0 0 C2 1 2 1 2 1 Z " fill="#C55938" transform="translate(529,774)"/>
<path d="M0 0 C2 1 2 1 2 1 Z " fill="#C6593A" transform="translate(536,773)"/>
<path d="M0 0 C2 1 2 1 2 1 Z " fill="#CA603C" transform="translate(434,772)"/>
<path d="M0 0 C2 1 2 1 2 1 Z " fill="#CC5B38" transform="translate(545,752)"/>
<path d="M0 0 C2 1 2 1 2 1 Z " fill="#CF603A" transform="translate(429,752)"/>
<path d="M0 0 C2 1 2 1 2 1 Z " fill="#C85F3B" transform="translate(606,751)"/>
<path d="M0 0 C2 1 2 1 2 1 Z " fill="#CE5D3A" transform="translate(584,739)"/>
<path d="M0 0 C2 1 2 1 2 1 Z " fill="#CD5D3C" transform="translate(698,715)"/>
<path d="M0 0 C2 1 2 1 2 1 Z " fill="#C25A3B" transform="translate(812,709)"/>
<path d="M0 0 C2 1 2 1 2 1 Z " fill="#CE5C3B" transform="translate(729,709)"/>
<path d="M0 0 C2 1 2 1 2 1 Z " fill="#C65836" transform="translate(793,707)"/>
<path d="M0 0 C2 1 2 1 2 1 Z " fill="#C85C38" transform="translate(774,706)"/>
<path d="" fill="#D5633E" transform="translate(0,0)"/>
<path d="" fill="#CA5938" transform="translate(0,0)"/>
<path d="" fill="#D2633F" transform="translate(0,0)"/>
<path d="" fill="#D2623D" transform="translate(0,0)"/>
<path d="" fill="#D3673D" transform="translate(0,0)"/>
<path d="" fill="#C65E3D" transform="translate(0,0)"/>
<path d="" fill="#C45D3D" transform="translate(0,0)"/>
<path d="M0 0 C2 1 2 1 2 1 Z " fill="#D9673E" transform="translate(350,524)"/>
<path d="" fill="#D16F46" transform="translate(0,0)"/>
<path d="M0 0 C2 1 2 1 2 1 Z " fill="#CF5C3A" transform="translate(489,517)"/>
<path d="" fill="#C85A3B" transform="translate(0,0)"/>
<path d="" fill="#E07346" transform="translate(0,0)"/>
<path d="" fill="#D36440" transform="translate(0,0)"/>
<path d="" fill="#D1603C" transform="translate(0,0)"/>
<path d="" fill="#D25E3D" transform="translate(0,0)"/>
<path d="" fill="#CF593A" transform="translate(0,0)"/>
<path d="" fill="#CF5C3B" transform="translate(0,0)"/>
<path d="" fill="#D05B3B" transform="translate(0,0)"/>
<path d="" fill="#CC5634" transform="translate(0,0)"/>
<path d="" fill="#D0603C" transform="translate(0,0)"/>
<path d="M0 0 C2 1 2 1 2 1 Z " fill="#DA7248" transform="translate(360,415)"/>
<path d="" fill="#D3774C" transform="translate(0,0)"/>
<path d="M0 0 C2 1 2 1 2 1 Z " fill="#DD7245" transform="translate(337,392)"/>
<path d="M0 0 C2 1 2 1 2 1 Z " fill="#D7633D" transform="translate(500,391)"/>
<path d="M0 0 C2 1 2 1 2 1 Z " fill="#D66741" transform="translate(478,370)"/>
<path d="" fill="#D76740" transform="translate(0,0)"/>
<path d="M0 0 C2 1 2 1 2 1 Z " fill="#D1693E" transform="translate(656,270)"/>
<path d="" fill="#DA6F44" transform="translate(0,0)"/>
<path d="M0 0 C2 1 2 1 2 1 Z " fill="#DD7444" transform="translate(436,214)"/>
<path d="M0 0 C2 1 2 1 2 1 Z " fill="#E17646" transform="translate(441,213)"/>
<path d="M0 0 C2 1 2 1 2 1 Z " fill="#D57749" transform="translate(416,200)"/>
<path d="M0 0 C2 1 2 1 2 1 Z " fill="#D47042" transform="translate(527,193)"/>
<path d="" fill="#4D4B47" transform="translate(0,0)"/>
<path d="" fill="#4F4842" transform="translate(0,0)"/>
<path d="" fill="#C75A38" transform="translate(0,0)"/>
<path d="" fill="#CA5E3C" transform="translate(0,0)"/>
<path d="" fill="#CA5F3C" transform="translate(0,0)"/>
<path d="" fill="#CA5F3C" transform="translate(0,0)"/>
<path d="" fill="#C75C39" transform="translate(0,0)"/>
<path d="" fill="#CB5E3B" transform="translate(0,0)"/>
<path d="" fill="#CA5C3A" transform="translate(0,0)"/>
<path d="" fill="#CA613E" transform="translate(0,0)"/>
<path d="" fill="#CA643F" transform="translate(0,0)"/>
<path d="" fill="#CA5E3A" transform="translate(0,0)"/>
<path d="" fill="#CB6540" transform="translate(0,0)"/>
<path d="" fill="#C9653E" transform="translate(0,0)"/>
<path d="" fill="#C95C3C" transform="translate(0,0)"/>
<path d="" fill="#CF5C36" transform="translate(0,0)"/>
<path d="" fill="#C95D3A" transform="translate(0,0)"/>
<path d="" fill="#D26541" transform="translate(0,0)"/>
<path d="" fill="#CA613B" transform="translate(0,0)"/>
<path d="" fill="#C9633E" transform="translate(0,0)"/>
<path d="" fill="#CA6741" transform="translate(0,0)"/>
<path d="" fill="#CB6841" transform="translate(0,0)"/>
<path d="" fill="#C95F3F" transform="translate(0,0)"/>
<path d="" fill="#D16138" transform="translate(0,0)"/>
<path d="" fill="#CC6542" transform="translate(0,0)"/>
<path d="" fill="#D05F3B" transform="translate(0,0)"/>
<path d="" fill="#CA603B" transform="translate(0,0)"/>
<path d="" fill="#CF613D" transform="translate(0,0)"/>
<path d="" fill="#CB5E3C" transform="translate(0,0)"/>
<path d="" fill="#CA603E" transform="translate(0,0)"/>
<path d="" fill="#CF633C" transform="translate(0,0)"/>
<path d="" fill="#D66840" transform="translate(0,0)"/>
<path d="" fill="#CE5C3A" transform="translate(0,0)"/>
<path d="" fill="#CB5F3D" transform="translate(0,0)"/>
<path d="" fill="#CD5F3D" transform="translate(0,0)"/>
<path d="" fill="#CE613D" transform="translate(0,0)"/>
<path d="" fill="#D3673D" transform="translate(0,0)"/>
<path d="" fill="#B25A3F" transform="translate(0,0)"/>
<path d="" fill="#CA5B39" transform="translate(0,0)"/>
<path d="" fill="#C85D3D" transform="translate(0,0)"/>
<path d="" fill="#CB5D3B" transform="translate(0,0)"/>
<path d="" fill="#CD5E3B" transform="translate(0,0)"/>
<path d="" fill="#D6683D" transform="translate(0,0)"/>
<path d="" fill="#C45B3B" transform="translate(0,0)"/>
<path d="" fill="#C85B3A" transform="translate(0,0)"/>
<path d="" fill="#C85D3C" transform="translate(0,0)"/>
<path d="" fill="#C95D3B" transform="translate(0,0)"/>
<path d="" fill="#CA5C39" transform="translate(0,0)"/>
<path d="" fill="#D66840" transform="translate(0,0)"/>
<path d="" fill="#CB6540" transform="translate(0,0)"/>
<path d="" fill="#D4613A" transform="translate(0,0)"/>
<path d="" fill="#D4643E" transform="translate(0,0)"/>
<path d="" fill="#D5603B" transform="translate(0,0)"/>
<path d="" fill="#D25F36" transform="translate(0,0)"/>
<path d="" fill="#D1623F" transform="translate(0,0)"/>
<path d="" fill="#D3633C" transform="translate(0,0)"/>
<path d="" fill="#D45C37" transform="translate(0,0)"/>
<path d="" fill="#D05F3A" transform="translate(0,0)"/>
<path d="" fill="#C25C3D" transform="translate(0,0)"/>
<path d="" fill="#D4603D" transform="translate(0,0)"/>
<path d="" fill="#C25A39" transform="translate(0,0)"/>
<path d="" fill="#CD5D3A" transform="translate(0,0)"/>
<path d="" fill="#D0613E" transform="translate(0,0)"/>
<path d="" fill="#D1663D" transform="translate(0,0)"/>
<path d="" fill="#CE5537" transform="translate(0,0)"/>
<path d="" fill="#D05938" transform="translate(0,0)"/>
<path d="" fill="#CC5A3B" transform="translate(0,0)"/>
<path d="" fill="#CE5D3A" transform="translate(0,0)"/>
<path d="" fill="#D6633D" transform="translate(0,0)"/>
<path d="" fill="#D76441" transform="translate(0,0)"/>
<path d="" fill="#D06740" transform="translate(0,0)"/>
<path d="" fill="#CD6440" transform="translate(0,0)"/>
<path d="" fill="#CD6743" transform="translate(0,0)"/>
<path d="" fill="#CC5F39" transform="translate(0,0)"/>
<path d="" fill="#D05E3D" transform="translate(0,0)"/>
<path d="" fill="#D05D3A" transform="translate(0,0)"/>
<path d="" fill="#CB6844" transform="translate(0,0)"/>
<path d="" fill="#D25B34" transform="translate(0,0)"/>
<path d="" fill="#CC5F3C" transform="translate(0,0)"/>
<path d="" fill="#D25F3B" transform="translate(0,0)"/>
<path d="" fill="#D4633F" transform="translate(0,0)"/>
<path d="" fill="#D1653A" transform="translate(0,0)"/>
<path d="" fill="#CE5F3A" transform="translate(0,0)"/>
<path d="" fill="#D35F3A" transform="translate(0,0)"/>
<path d="" fill="#CD5635" transform="translate(0,0)"/>
<path d="" fill="#D0603C" transform="translate(0,0)"/>
<path d="" fill="#CC5A3B" transform="translate(0,0)"/>
<path d="" fill="#D25E3C" transform="translate(0,0)"/>
<path d="" fill="#C95534" transform="translate(0,0)"/>
<path d="" fill="#D3633E" transform="translate(0,0)"/>
<path d="" fill="#D3673E" transform="translate(0,0)"/>
<path d="" fill="#D4673D" transform="translate(0,0)"/>
<path d="" fill="#CD5F41" transform="translate(0,0)"/>
<path d="" fill="#D3623B" transform="translate(0,0)"/>
<path d="" fill="#CD6841" transform="translate(0,0)"/>
<path d="" fill="#D46139" transform="translate(0,0)"/>
<path d="" fill="#D5673E" transform="translate(0,0)"/>
<path d="" fill="#CF5638" transform="translate(0,0)"/>
<path d="" fill="#CF6740" transform="translate(0,0)"/>
<path d="" fill="#CE5333" transform="translate(0,0)"/>
<path d="" fill="#CC5334" transform="translate(0,0)"/>
<path d="" fill="#CA5C39" transform="translate(0,0)"/>
<path d="" fill="#CE5739" transform="translate(0,0)"/>
<path d="" fill="#CA633D" transform="translate(0,0)"/>
<path d="" fill="#D5663F" transform="translate(0,0)"/>
<path d="" fill="#CC6841" transform="translate(0,0)"/>
<path d="" fill="#CB5E3E" transform="translate(0,0)"/>
<path d="" fill="#CD6943" transform="translate(0,0)"/>
<path d="" fill="#CE5838" transform="translate(0,0)"/>
<path d="" fill="#CE5638" transform="translate(0,0)"/>
<path d="" fill="#D76640" transform="translate(0,0)"/>
<path d="" fill="#CD5638" transform="translate(0,0)"/>
<path d="" fill="#CC5637" transform="translate(0,0)"/>
<path d="" fill="#CD5938" transform="translate(0,0)"/>
<path d="" fill="#CD6941" transform="translate(0,0)"/>
<path d="" fill="#CC6840" transform="translate(0,0)"/>
<path d="" fill="#C85735" transform="translate(0,0)"/>
<path d="" fill="#CF5F3E" transform="translate(0,0)"/>
<path d="" fill="#CB5939" transform="translate(0,0)"/>
<path d="" fill="#D4643D" transform="translate(0,0)"/>
<path d="" fill="#CB6B43" transform="translate(0,0)"/>
<path d="" fill="#C54C34" transform="translate(0,0)"/>
<path d="" fill="#D6653F" transform="translate(0,0)"/>
<path d="" fill="#CA603D" transform="translate(0,0)"/>
<path d="" fill="#CB5839" transform="translate(0,0)"/>
<path d="" fill="#D5613B" transform="translate(0,0)"/>
<path d="" fill="#CC5636" transform="translate(0,0)"/>
<path d="" fill="#C85A35" transform="translate(0,0)"/>
<path d="" fill="#D2653B" transform="translate(0,0)"/>
<path d="" fill="#D5653E" transform="translate(0,0)"/>
<path d="" fill="#D45C38" transform="translate(0,0)"/>
<path d="" fill="#D25E3C" transform="translate(0,0)"/>
<path d="" fill="#D5633F" transform="translate(0,0)"/>
<path d="" fill="#D4613D" transform="translate(0,0)"/>
<path d="" fill="#D3693E" transform="translate(0,0)"/>
<path d="" fill="#D15D3A" transform="translate(0,0)"/>
<path d="" fill="#CC6B41" transform="translate(0,0)"/>
<path d="" fill="#CC593A" transform="translate(0,0)"/>
<path d="" fill="#DA643F" transform="translate(0,0)"/>
<path d="" fill="#DA6841" transform="translate(0,0)"/>
<path d="" fill="#CA5837" transform="translate(0,0)"/>
<path d="" fill="#CD6B43" transform="translate(0,0)"/>
<path d="" fill="#DA653D" transform="translate(0,0)"/>
<path d="" fill="#D46C42" transform="translate(0,0)"/>
<path d="" fill="#D55F3D" transform="translate(0,0)"/>
<path d="" fill="#D15A35" transform="translate(0,0)"/>
<path d="" fill="#CE5E3D" transform="translate(0,0)"/>
<path d="" fill="#D7653F" transform="translate(0,0)"/>
<path d="" fill="#CC5837" transform="translate(0,0)"/>
<path d="" fill="#CE5E3B" transform="translate(0,0)"/>
<path d="" fill="#D26B43" transform="translate(0,0)"/>
<path d="" fill="#D05D39" transform="translate(0,0)"/>
<path d="" fill="#CE5F3B" transform="translate(0,0)"/>
<path d="" fill="#C55B3D" transform="translate(0,0)"/>
<path d="" fill="#CD5D3C" transform="translate(0,0)"/>
<path d="" fill="#CD5838" transform="translate(0,0)"/>
<path d="" fill="#CD5737" transform="translate(0,0)"/>
<path d="" fill="#D5653D" transform="translate(0,0)"/>
<path d="" fill="#D16D46" transform="translate(0,0)"/>
<path d="" fill="#CE5E3C" transform="translate(0,0)"/>
<path d="" fill="#DA6841" transform="translate(0,0)"/>
<path d="" fill="#D86940" transform="translate(0,0)"/>
<path d="" fill="#CD5836" transform="translate(0,0)"/>
<path d="" fill="#CB5434" transform="translate(0,0)"/>
<path d="" fill="#DA693E" transform="translate(0,0)"/>
<path d="" fill="#CF6D44" transform="translate(0,0)"/>
<path d="" fill="#CC5738" transform="translate(0,0)"/>
<path d="" fill="#DB6D43" transform="translate(0,0)"/>
<path d="" fill="#CB5C3B" transform="translate(0,0)"/>
<path d="" fill="#D17046" transform="translate(0,0)"/>
<path d="" fill="#CF593A" transform="translate(0,0)"/>
<path d="" fill="#D05C3A" transform="translate(0,0)"/>
<path d="" fill="#D05937" transform="translate(0,0)"/>
<path d="" fill="#DA6A42" transform="translate(0,0)"/>
<path d="" fill="#CF5A38" transform="translate(0,0)"/>
<path d="" fill="#CD5B3C" transform="translate(0,0)"/>
<path d="" fill="#CE5B3A" transform="translate(0,0)"/>
<path d="" fill="#D15D39" transform="translate(0,0)"/>
<path d="" fill="#DA7245" transform="translate(0,0)"/>
<path d="" fill="#D05837" transform="translate(0,0)"/>
<path d="" fill="#D06F48" transform="translate(0,0)"/>
<path d="" fill="#DA683E" transform="translate(0,0)"/>
<path d="" fill="#D15A39" transform="translate(0,0)"/>
<path d="" fill="#D15D3A" transform="translate(0,0)"/>
<path d="" fill="#DC6C42" transform="translate(0,0)"/>
<path d="" fill="#DC6B3F" transform="translate(0,0)"/>
<path d="" fill="#C95739" transform="translate(0,0)"/>
<path d="" fill="#D3673F" transform="translate(0,0)"/>
<path d="" fill="#D05939" transform="translate(0,0)"/>
<path d="" fill="#DB6C41" transform="translate(0,0)"/>
<path d="" fill="#CC5737" transform="translate(0,0)"/>
<path d="" fill="#D05738" transform="translate(0,0)"/>
<path d="" fill="#D25A39" transform="translate(0,0)"/>
<path d="" fill="#DD6B40" transform="translate(0,0)"/>
<path d="" fill="#DB6B41" transform="translate(0,0)"/>
<path d="" fill="#CD5A3B" transform="translate(0,0)"/>
<path d="" fill="#DD7043" transform="translate(0,0)"/>
<path d="" fill="#CA5B39" transform="translate(0,0)"/>
<path d="" fill="#CE5937" transform="translate(0,0)"/>
<path d="" fill="#D96D42" transform="translate(0,0)"/>
<path d="" fill="#CD6040" transform="translate(0,0)"/>
<path d="" fill="#D0613D" transform="translate(0,0)"/>
<path d="" fill="#D96A41" transform="translate(0,0)"/>
<path d="" fill="#CF5938" transform="translate(0,0)"/>
<path d="" fill="#D05C3B" transform="translate(0,0)"/>
<path d="" fill="#CE5D3D" transform="translate(0,0)"/>
<path d="" fill="#D1603A" transform="translate(0,0)"/>
<path d="" fill="#E07446" transform="translate(0,0)"/>
<path d="" fill="#D05A39" transform="translate(0,0)"/>
<path d="" fill="#DB7246" transform="translate(0,0)"/>
<path d="" fill="#CC5B39" transform="translate(0,0)"/>
<path d="" fill="#CA5A3C" transform="translate(0,0)"/>
<path d="" fill="#CF5A39" transform="translate(0,0)"/>
<path d="" fill="#D76944" transform="translate(0,0)"/>
<path d="" fill="#CB5839" transform="translate(0,0)"/>
<path d="" fill="#CE593A" transform="translate(0,0)"/>
<path d="" fill="#D76B40" transform="translate(0,0)"/>
<path d="" fill="#D05C3A" transform="translate(0,0)"/>
<path d="" fill="#CF5838" transform="translate(0,0)"/>
<path d="" fill="#D05D3B" transform="translate(0,0)"/>
<path d="" fill="#DF7549" transform="translate(0,0)"/>
<path d="" fill="#D56743" transform="translate(0,0)"/>
<path d="" fill="#DD7447" transform="translate(0,0)"/>
<path d="" fill="#CF5738" transform="translate(0,0)"/>
<path d="" fill="#CD5C3A" transform="translate(0,0)"/>
<path d="" fill="#D4673F" transform="translate(0,0)"/>
<path d="" fill="#D0734B" transform="translate(0,0)"/>
<path d="" fill="#D05E3C" transform="translate(0,0)"/>
<path d="" fill="#D2623F" transform="translate(0,0)"/>
<path d="" fill="#D55C3A" transform="translate(0,0)"/>
<path d="" fill="#CB5C3A" transform="translate(0,0)"/>
<path d="" fill="#D76640" transform="translate(0,0)"/>
<path d="" fill="#D45F3C" transform="translate(0,0)"/>
<path d="" fill="#D96D43" transform="translate(0,0)"/>
<path d="" fill="#D45D3B" transform="translate(0,0)"/>
<path d="" fill="#D46440" transform="translate(0,0)"/>
<path d="" fill="#D5673E" transform="translate(0,0)"/>
<path d="" fill="#E07747" transform="translate(0,0)"/>
<path d="" fill="#CC5C3A" transform="translate(0,0)"/>
<path d="" fill="#CF5A3B" transform="translate(0,0)"/>
<path d="" fill="#E17848" transform="translate(0,0)"/>
<path d="" fill="#DD7748" transform="translate(0,0)"/>
<path d="" fill="#D15F39" transform="translate(0,0)"/>
<path d="" fill="#CD623D" transform="translate(0,0)"/>
<path d="" fill="#CF5C3A" transform="translate(0,0)"/>
<path d="" fill="#DE7445" transform="translate(0,0)"/>
<path d="" fill="#D15C3A" transform="translate(0,0)"/>
<path d="" fill="#CE5F3B" transform="translate(0,0)"/>
<path d="" fill="#D1613C" transform="translate(0,0)"/>
<path d="" fill="#CF5E3D" transform="translate(0,0)"/>
<path d="" fill="#D77144" transform="translate(0,0)"/>
<path d="" fill="#D45E3A" transform="translate(0,0)"/>
<path d="" fill="#D86A40" transform="translate(0,0)"/>
<path d="" fill="#D05B38" transform="translate(0,0)"/>
<path d="" fill="#DE6F43" transform="translate(0,0)"/>
<path d="" fill="#CF5936" transform="translate(0,0)"/>
<path d="" fill="#E17649" transform="translate(0,0)"/>
<path d="" fill="#D15836" transform="translate(0,0)"/>
<path d="" fill="#D15D3A" transform="translate(0,0)"/>
<path d="" fill="#DF7749" transform="translate(0,0)"/>
<path d="" fill="#D15E3E" transform="translate(0,0)"/>
<path d="" fill="#D05635" transform="translate(0,0)"/>
<path d="" fill="#C5603F" transform="translate(0,0)"/>
<path d="" fill="#D45D3B" transform="translate(0,0)"/>
<path d="" fill="#E47649" transform="translate(0,0)"/>
<path d="" fill="#E07045" transform="translate(0,0)"/>
<path d="" fill="#E17448" transform="translate(0,0)"/>
<path d="" fill="#E27546" transform="translate(0,0)"/>
<path d="" fill="#E17447" transform="translate(0,0)"/>
<path d="" fill="#CE5B37" transform="translate(0,0)"/>
<path d="" fill="#DE7B4B" transform="translate(0,0)"/>
<path d="" fill="#DF7849" transform="translate(0,0)"/>
<path d="" fill="#D05E3B" transform="translate(0,0)"/>
<path d="" fill="#DF784A" transform="translate(0,0)"/>
<path d="" fill="#CA5B38" transform="translate(0,0)"/>
<path d="" fill="#CF5F3C" transform="translate(0,0)"/>
<path d="" fill="#C25E3C" transform="translate(0,0)"/>
<path d="" fill="#D05D3B" transform="translate(0,0)"/>
<path d="" fill="#E07747" transform="translate(0,0)"/>
<path d="" fill="#D1603B" transform="translate(0,0)"/>
<path d="" fill="#D45E3A" transform="translate(0,0)"/>
<path d="" fill="#D45A36" transform="translate(0,0)"/>
<path d="" fill="#D35E3A" transform="translate(0,0)"/>
<path d="" fill="#D86941" transform="translate(0,0)"/>
<path d="" fill="#D76741" transform="translate(0,0)"/>
<path d="" fill="#E07C4B" transform="translate(0,0)"/>
<path d="" fill="#D25E3B" transform="translate(0,0)"/>
<path d="" fill="#CD603D" transform="translate(0,0)"/>
<path d="" fill="#D3613B" transform="translate(0,0)"/>
<path d="" fill="#D86740" transform="translate(0,0)"/>
<path d="" fill="#DD794B" transform="translate(0,0)"/>
<path d="" fill="#D6663D" transform="translate(0,0)"/>
<path d="" fill="#D8683F" transform="translate(0,0)"/>
<path d="" fill="#D2633C" transform="translate(0,0)"/>
<path d="" fill="#CD5F3C" transform="translate(0,0)"/>
<path d="" fill="#C6623E" transform="translate(0,0)"/>
<path d="" fill="#D6653F" transform="translate(0,0)"/>
<path d="" fill="#D55F33" transform="translate(0,0)"/>
<path d="" fill="#DE7D4B" transform="translate(0,0)"/>
<path d="" fill="#D2663C" transform="translate(0,0)"/>
<path d="" fill="#D97A4C" transform="translate(0,0)"/>
<path d="" fill="#D1613B" transform="translate(0,0)"/>
<path d="" fill="#D87C4D" transform="translate(0,0)"/>
<path d="" fill="#D2643F" transform="translate(0,0)"/>
<path d="" fill="#DB6A40" transform="translate(0,0)"/>
<path d="" fill="#C5633D" transform="translate(0,0)"/>
<path d="" fill="#C7653F" transform="translate(0,0)"/>
<path d="" fill="#C8633B" transform="translate(0,0)"/>
<path d="" fill="#D1663F" transform="translate(0,0)"/>
<path d="" fill="#D96841" transform="translate(0,0)"/>
<path d="" fill="#D56A41" transform="translate(0,0)"/>
<path d="" fill="#DD7948" transform="translate(0,0)"/>
<path d="" fill="#DC7B4B" transform="translate(0,0)"/>
<path d="" fill="#DA7746" transform="translate(0,0)"/>
<path d="" fill="#C76541" transform="translate(0,0)"/>
<path d="" fill="#D46841" transform="translate(0,0)"/>
<path d="" fill="#D66A42" transform="translate(0,0)"/>
<path d="" fill="#DC784D" transform="translate(0,0)"/>
<path d="" fill="#D36740" transform="translate(0,0)"/>
<path d="" fill="#D8683D" transform="translate(0,0)"/>
<path d="" fill="#D37D4D" transform="translate(0,0)"/>
<path d="" fill="#DA6A41" transform="translate(0,0)"/>
<path d="" fill="#DB7247" transform="translate(0,0)"/>
<path d="" fill="#D56943" transform="translate(0,0)"/>
<path d="" fill="#DC7947" transform="translate(0,0)"/>
<path d="" fill="#D56A41" transform="translate(0,0)"/>
<path d="" fill="#DD6F45" transform="translate(0,0)"/>
<path d="" fill="#DC7040" transform="translate(0,0)"/>
<path d="" fill="#D76A41" transform="translate(0,0)"/>
<path d="" fill="#D46740" transform="translate(0,0)"/>
<path d="" fill="#DC7045" transform="translate(0,0)"/>
<path d="" fill="#D76941" transform="translate(0,0)"/>
<path d="" fill="#DF7C4A" transform="translate(0,0)"/>
<path d="" fill="#D56A42" transform="translate(0,0)"/>
<path d="" fill="#DC7344" transform="translate(0,0)"/>
<path d="" fill="#D5673D" transform="translate(0,0)"/>
<path d="" fill="#DE7C4B" transform="translate(0,0)"/>
<path d="" fill="#D96C3F" transform="translate(0,0)"/>
<path d="" fill="#DB6E43" transform="translate(0,0)"/>
<path d="" fill="#D66A40" transform="translate(0,0)"/>
<path d="" fill="#E07D4B" transform="translate(0,0)"/>
<path d="" fill="#D96D42" transform="translate(0,0)"/>
<path d="" fill="#E37C48" transform="translate(0,0)"/>
<path d="" fill="#DE7446" transform="translate(0,0)"/>
<path d="" fill="#CC693E" transform="translate(0,0)"/>
<path d="" fill="#D86C42" transform="translate(0,0)"/>
<path d="" fill="#C9683F" transform="translate(0,0)"/>
<path d="" fill="#D87F4F" transform="translate(0,0)"/>
<path d="" fill="#D87E4C" transform="translate(0,0)"/>
<path d="" fill="#DF7B49" transform="translate(0,0)"/>
<path d="" fill="#DA6B42" transform="translate(0,0)"/>
<path d="" fill="#D87D4E" transform="translate(0,0)"/>
<path d="" fill="#CA6C44" transform="translate(0,0)"/>
<path d="" fill="#D57C4D" transform="translate(0,0)"/>
<path d="" fill="#D86C43" transform="translate(0,0)"/>
<path d="" fill="#E27B4A" transform="translate(0,0)"/>
<path d="" fill="#CC693F" transform="translate(0,0)"/>
<path d="" fill="#E07346" transform="translate(0,0)"/>
<path d="" fill="#CE6D42" transform="translate(0,0)"/>
<path d="" fill="#DD7D4A" transform="translate(0,0)"/>
<path d="" fill="#D87D4B" transform="translate(0,0)"/>
<path d="" fill="#CC683F" transform="translate(0,0)"/>
<path d="" fill="#C7633B" transform="translate(0,0)"/>
<path d="" fill="#E07A48" transform="translate(0,0)"/>
<path d="" fill="#E07948" transform="translate(0,0)"/>
<path d="" fill="#E17A48" transform="translate(0,0)"/>
<path d="" fill="#E07847" transform="translate(0,0)"/>
<path d="" fill="#D97C4B" transform="translate(0,0)"/>
<path d="" fill="#E27A48" transform="translate(0,0)"/>
<path d="" fill="#D77A49" transform="translate(0,0)"/>
<path d="" fill="#DE7646" transform="translate(0,0)"/>
<path d="" fill="#DD7145" transform="translate(0,0)"/>
<path d="" fill="#DC7143" transform="translate(0,0)"/>
<path d="" fill="#DD7346" transform="translate(0,0)"/>
<path d="" fill="#DD7546" transform="translate(0,0)"/>
<path d="" fill="#D67746" transform="translate(0,0)"/>
<path d="" fill="#D36F43" transform="translate(0,0)"/>
<path d="" fill="#D57647" transform="translate(0,0)"/>
<path d="" fill="#D47144" transform="translate(0,0)"/>
<path d="" fill="#D77244" transform="translate(0,0)"/>
<path d="" fill="#D36E3E" transform="translate(0,0)"/>
<path d="" fill="#D67244" transform="translate(0,0)"/>
<path d="" fill="#D47143" transform="translate(0,0)"/>
</svg>
